<?xml version="1.0" encoding="UTF-8" standalone="no"?>
<!-- Created with Inkscape (http://www.inkscape.org/) -->

<svg
   xmlns:dc="http://purl.org/dc/elements/1.1/"
   xmlns:cc="http://creativecommons.org/ns#"
   xmlns:rdf="http://www.w3.org/1999/02/22-rdf-syntax-ns#"
   xmlns:svg="http://www.w3.org/2000/svg"
   xmlns="http://www.w3.org/2000/svg"
   xmlns:sodipodi="http://sodipodi.sourceforge.net/DTD/sodipodi-0.dtd"
   xmlns:inkscape="http://www.inkscape.org/namespaces/inkscape"
   width="945.49817"
   height="469.16718"
   id="svg2"
   version="1.1"
   inkscape:version="0.48.5 r10040"
   sodipodi:docname="mvcDiagram.svg">
  <defs
     id="defs4">
    <marker
       inkscape:stockid="Arrow2Lend"
       orient="auto"
       refY="0"
       refX="0"
       id="Arrow2Lend"
       style="overflow:visible">
      <path
         id="path3824"
         style="fill-rule:evenodd;stroke-width:0.625;stroke-linejoin:round"
         d="M 8.7185878,4.0337352 -2.2072895,0.01601326 8.7185884,-4.0017078 c -1.7454984,2.3720609 -1.7354408,5.6174519 -6e-7,8.035443 z"
         transform="matrix(-1.1,0,0,-1.1,-1.1,0)"
         inkscape:connector-curvature="0" />
    </marker>
    <marker
       inkscape:stockid="Arrow1Lend"
       orient="auto"
       refY="0"
       refX="0"
       id="Arrow1Lend"
       style="overflow:visible">
      <path
         id="path3806"
         d="M 0,0 5,-5 -12.5,0 5,5 0,0 z"
         style="fill-rule:evenodd;stroke:#000000;stroke-width:1pt"
         transform="matrix(-0.8,0,0,-0.8,-10,0)"
         inkscape:connector-curvature="0" />
    </marker>
    <inkscape:path-effect
       effect="skeletal"
       id="path-effect3013"
       is_visible="true"
       pattern="M 0,5 10,10 10,0 z"
       copytype="single_stretched"
       prop_scale="1"
       scale_y_rel="false"
       spacing="0"
       normal_offset="0"
       tang_offset="0"
       prop_units="false"
       vertical_pattern="false"
       fuse_tolerance="0" />
  </defs>
  <sodipodi:namedview
     id="base"
     pagecolor="#ffffff"
     bordercolor="#666666"
     borderopacity="1.0"
     inkscape:pageopacity="0.0"
     inkscape:pageshadow="2"
     inkscape:zoom="0.49497475"
     inkscape:cx="422.71826"
     inkscape:cy="119.39602"
     inkscape:document-units="px"
     inkscape:current-layer="layer1"
     showgrid="false"
     fit-margin-top="24"
     fit-margin-left="24"
     fit-margin-right="24"
     fit-margin-bottom="24" />
  <metadata
     id="metadata7">
    <rdf:RDF>
      <cc:Work
         rdf:about="">
        <dc:format>image/svg+xml</dc:format>
        <dc:type
           rdf:resource="http://purl.org/dc/dcmitype/StillImage" />
        <dc:title></dc:title>
      </cc:Work>
    </rdf:RDF>
  </metadata>
  <g
     inkscape:label="Capa 1"
     inkscape:groupmode="layer"
     id="layer1"
     transform="translate(-13.144702,-303.80934)">
    <text
       xml:space="preserve"
       style="font-size:24px;font-style:normal;font-variant:normal;font-weight:normal;font-stretch:normal;line-height:125%;letter-spacing:0px;word-spacing:0px;fill:#000000;fill-opacity:1;stroke:none;font-family:Arial;-inkscape-font-specification:Arial"
       x="258.59906"
       y="272.04556"
       id="text4433"
       sodipodi:linespacing="125%"
       transform="translate(0,287.36218)"><tspan
         sodipodi:role="line"
         id="tspan4435"
         x="258.59906"
         y="272.04556" /></text>
    <g
       id="g4469"
       transform="matrix(0.67392104,0,0,0.67392104,143.45957,159.2659)">
      <path
         transform="matrix(1.0183963,0,0,0.96831128,-94.300424,188.12759)"
         style="fill:#b7c4c8;fill-opacity:1;stroke:#02070c;stroke-width:1.49425614;stroke-linecap:butt;stroke-linejoin:miter;stroke-miterlimit:4;stroke-dashoffset:0;stroke-opacity:1"
         d="m 330.31989,346.29178 c 0,51.0471 -39.34669,92.42895 -87.88328,92.42895 -48.53658,0 -87.88327,-41.38185 -87.88327,-92.42895 0,-51.0471 39.34669,-92.42896 87.88327,-92.42896 48.53659,0 87.88328,41.38186 87.88328,92.42896 z"
         id="path2985" />
      <g
         style="font-size:40px;font-style:normal;font-variant:normal;font-weight:normal;font-stretch:normal;line-height:125%;letter-spacing:0px;word-spacing:0px;fill:#000000;fill-opacity:1;stroke:none;font-family:Arial;-inkscape-font-specification:Arial"
         id="text2987">
        <path
           d="m 55.169159,663.45349 0,-28.63281 20.703125,0 0,3.3789 -16.914063,0 0,8.76954 15.839844,0 0,3.35937 -15.839844,0 0,9.74609 17.578125,0 0,3.37891 -21.367187,0"
           style=""
           id="path4558" />
        <path
           d="m 81.360565,663.45349 0,-20.74219 3.164063,0 0,2.94922 c 1.52343,-2.27862 3.723948,-3.41795 6.601562,-3.41797 1.249987,2e-5 2.395819,0.22789 3.4375,0.6836 1.054671,0.44273 1.84243,1.02866 2.363281,1.75781 0.520815,0.72918 0.885398,1.59507 1.09375,2.59766 0.130189,0.65105 0.195293,1.79038 0.195313,3.41796 l 0,12.75391 -3.515625,0 0,-12.61719 c -1.6e-5,-1.43227 -0.136735,-2.49998 -0.410156,-3.20312 -0.273453,-0.71613 -0.761734,-1.28254 -1.464844,-1.69922 -0.690118,-0.42967 -1.503919,-0.64451 -2.441406,-0.64453 -1.497406,2e-5 -2.792978,0.47528 -3.886719,1.42578 -1.080736,0.95054 -1.6211,2.75392 -1.621094,5.41016 l 0,11.32812 -3.515625,0"
           style=""
           id="path4560" />
        <path
           d="m 103.58713,663.45349 0,-20.74219 3.16406,0 0,3.14453 c 0.80729,-1.47133 1.54947,-2.44138 2.22656,-2.91015 0.6901,-0.46873 1.44531,-0.70311 2.26563,-0.70313 1.18488,2e-5 2.38931,0.37763 3.61328,1.13282 l -1.21094,3.26171 c -0.85939,-0.50779 -1.71876,-0.7617 -2.57812,-0.76171 -0.76824,10e-6 -1.45835,0.23439 -2.07032,0.70312 -0.61198,0.45575 -1.04818,1.09377 -1.30859,1.91406 -0.39063,1.25002 -0.58594,2.6172 -0.58594,4.10157 l 0,10.85937 -3.51562,0"
           style=""
           id="path4562" />
        <path
           d="m 130.57932,663.45349 0,-3.04687 c -1.6146,2.34375 -3.80861,3.51562 -6.58204,3.51562 -1.22396,0 -2.3698,-0.23437 -3.4375,-0.70312 -1.05469,-0.46875 -1.84245,-1.05469 -2.36328,-1.75782 -0.50781,-0.71614 -0.86589,-1.58853 -1.07422,-2.61718 -0.14323,-0.6901 -0.21484,-1.78385 -0.21484,-3.28125 l 0,-12.85157 3.51563,0 0,11.50391 c -10e-6,1.83594 0.0716,3.07292 0.21484,3.71094 0.22135,0.92448 0.6901,1.65365 1.40625,2.1875 0.71614,0.52083 1.60155,0.78125 2.65625,0.78125 1.05468,0 2.04426,-0.26693 2.96875,-0.80078 0.92446,-0.54687 1.5755,-1.28255 1.95312,-2.20704 0.39061,-0.93749 0.58593,-2.29165 0.58594,-4.0625 l 0,-11.11328 3.51563,0 0,20.74219 -3.14453,0"
           style=""
           id="path4564" />
        <path
           d="m 146.92697,660.30896 0.50781,3.10547 c -0.98959,0.20833 -1.87501,0.3125 -2.65625,0.3125 -1.27604,0 -2.26563,-0.20182 -2.96875,-0.60547 -0.70313,-0.40365 -1.19792,-0.93099 -1.48437,-1.58203 -0.28646,-0.66406 -0.42969,-2.05078 -0.42969,-4.16016 l 0,-11.93359 -2.57812,0 0,-2.73438 2.57812,0 0,-5.13672 3.4961,-2.10937 0,7.24609 3.53515,0 0,2.73438 -3.53515,0 0,12.1289 c -1e-5,1.00261 0.0586,1.64714 0.17578,1.9336 0.1302,0.28646 0.33202,0.51433 0.60547,0.68359 0.28645,0.16928 0.69009,0.25391 1.21093,0.25391 0.39062,0 0.90494,-0.0456 1.54297,-0.13672"
           style=""
           id="path4566" />
        <path
           d="m 163.8801,660.8949 c -1.3021,1.10677 -2.55861,1.88802 -3.76953,2.34375 -1.19793,0.45573 -2.48699,0.68359 -3.86719,0.68359 -2.27865,0 -4.02995,-0.55338 -5.25391,-1.66016 -1.22396,-1.11978 -1.83594,-2.54556 -1.83594,-4.27734 0,-1.01562 0.22787,-1.9401 0.6836,-2.77344 0.46875,-0.84634 1.07421,-1.52342 1.8164,-2.03125 0.75521,-0.5078 1.60156,-0.89191 2.53907,-1.15234 0.69009,-0.18228 1.73176,-0.35806 3.125,-0.52734 2.83853,-0.33853 4.92837,-0.74218 6.26953,-1.21094 0.013,-0.48176 0.0195,-0.78775 0.0195,-0.91797 -2e-5,-1.43228 -0.33205,-2.44139 -0.99609,-3.02734 -0.89846,-0.79426 -2.23309,-1.19139 -4.00391,-1.19141 -1.65366,2e-5 -2.87761,0.29299 -3.67188,0.87891 -0.78125,0.57293 -1.36068,1.59506 -1.73828,3.0664 l -3.4375,-0.46875 c 0.3125,-1.47134 0.82682,-2.65623 1.54297,-3.55469 0.71614,-0.91143 1.7513,-1.60805 3.10547,-2.08984 1.35416,-0.49477 2.92317,-0.74217 4.70703,-0.74219 1.77082,2e-5 3.20962,0.20836 4.31641,0.625 1.10675,0.41669 1.92055,0.94403 2.4414,1.58203 0.52082,0.62502 0.8854,1.41929 1.09375,2.38282 0.11717,0.59897 0.17577,1.6797 0.17579,3.24218 l 0,4.6875 c -2e-5,3.26824 0.0716,5.33855 0.21484,6.21094 0.15623,0.85938 0.45571,1.6862 0.89844,2.48047 l -3.67188,0 c -0.3646,-0.72916 -0.59897,-1.58203 -0.70312,-2.55859 m -0.29297,-7.85157 c -1.27606,0.52085 -3.19012,0.96356 -5.74219,1.32813 -1.44532,0.20834 -2.46746,0.44272 -3.06641,0.70312 -0.59896,0.26043 -1.0612,0.64454 -1.38671,1.15235 -0.32553,0.4948 -0.48829,1.04818 -0.48829,1.66015 0,0.93751 0.35156,1.71876 1.05469,2.34375 0.71614,0.62501 1.75781,0.93751 3.125,0.9375 1.35416,10e-6 2.55858,-0.29296 3.61328,-0.8789 1.05468,-0.59896 1.82941,-1.41276 2.32422,-2.44141 0.37759,-0.79426 0.56639,-1.96614 0.56641,-3.51562 l 0,-1.28907"
           style=""
           id="path4568" />
        <path
           d="m 186.0676,663.45349 0,-2.61719 c -1.31512,2.0573 -3.24871,3.08594 -5.80078,3.08594 -1.65366,0 -3.1771,-0.45573 -4.57032,-1.36719 -1.38021,-0.91145 -2.45443,-2.18098 -3.22265,-3.80859 -0.75521,-1.64062 -1.13282,-3.52213 -1.13282,-5.64453 0,-2.0703 0.34505,-3.9453 1.03516,-5.625 0.6901,-1.69269 1.72526,-2.98826 3.10547,-3.88672 1.3802,-0.89842 2.92317,-1.34764 4.62891,-1.34766 1.24998,2e-5 2.36326,0.26695 3.33984,0.80078 0.97655,0.52086 1.77082,1.20445 2.38281,2.05079 l 0,-10.27344 3.4961,0 0,28.63281 -3.26172,0 m -11.11328,-10.35156 c -1e-5,2.65626 0.55989,4.64193 1.67968,5.95703 1.11979,1.31511 2.4414,1.97266 3.96485,1.97266 1.53644,0 2.83852,-0.625 3.90625,-1.875 1.08071,-1.26302 1.62107,-3.18359 1.62109,-5.76172 -2e-5,-2.83853 -0.54689,-4.92186 -1.64062,-6.25 -1.09377,-1.32811 -2.44142,-1.99217 -4.04297,-1.99219 -1.56251,2e-5 -2.8711,0.63804 -3.92578,1.91406 -1.04168,1.27606 -1.56251,3.28778 -1.5625,6.03516"
           style=""
           id="path4570" />
        <path
           d="m 193.5676,653.0824 c 0,-3.84113 1.0677,-6.68618 3.20312,-8.53516 1.78385,-1.53644 3.95833,-2.30467 6.52344,-2.30469 2.85155,2e-5 5.18227,0.93752 6.99219,2.8125 1.80987,1.862 2.71482,4.44012 2.71484,7.73438 -2e-5,2.66928 -0.40367,4.77214 -1.21094,6.30859 -0.79429,1.52344 -1.95965,2.70834 -3.49609,3.55469 -1.52345,0.84635 -3.19012,1.26953 -5,1.26953 -2.90366,0 -5.25391,-0.93099 -7.05078,-2.79297 -1.78386,-1.86197 -2.67578,-4.54426 -2.67578,-8.04687 m 3.61328,0 c -1e-5,2.65626 0.57942,4.64844 1.73828,5.97656 1.15885,1.31511 2.61718,1.97266 4.375,1.97266 1.74478,0 3.1966,-0.66406 4.35547,-1.99219 1.15884,-1.32812 1.73826,-3.35286 1.73828,-6.07422 -2e-5,-2.56509 -0.58596,-4.50519 -1.75781,-5.82031 -1.15887,-1.32811 -2.60418,-1.99217 -4.33594,-1.99219 -1.75782,2e-5 -3.21615,0.65757 -4.375,1.97266 -1.15886,1.31512 -1.73829,3.30079 -1.73828,5.95703"
           style=""
           id="path4572" />
        <path
           d="m 217.10275,663.45349 0,-20.74219 3.16407,0 0,3.14453 c 0.80728,-1.47133 1.54947,-2.44138 2.22656,-2.91015 0.69009,-0.46873 1.4453,-0.70311 2.26562,-0.70313 1.18489,2e-5 2.38931,0.37763 3.61328,1.13282 l -1.21093,3.26171 c -0.85939,-0.50779 -1.71876,-0.7617 -2.57813,-0.76171 -0.76824,10e-6 -1.45834,0.23439 -2.07031,0.70312 -0.61199,0.45575 -1.04819,1.09377 -1.30859,1.91406 -0.39064,1.25002 -0.58595,2.6172 -0.58594,4.10157 l 0,10.85937 -3.51563,0"
           style=""
           id="path4574" />
      </g>
      <path
         transform="matrix(1.0183963,0,0,0.96831128,230.50168,184.08698)"
         style="fill:#b7c4c8;fill-opacity:1;stroke:#02070c;stroke-width:1.49425614;stroke-linecap:butt;stroke-linejoin:miter;stroke-miterlimit:4;stroke-dashoffset:0;stroke-opacity:1"
         inkscape:transform-center-x="271.73103"
         inkscape:transform-center-y="90"
         d="m 330.31989,346.29178 c 0,51.0471 -39.34669,92.42895 -87.88328,92.42895 -48.53658,0 -87.88327,-41.38185 -87.88327,-92.42895 0,-51.0471 39.34669,-92.42896 87.88327,-92.42896 48.53659,0 87.88328,41.38186 87.88328,92.42896 z"
         id="path2991" />
      <g
         style="font-size:40px;font-style:normal;font-variant:normal;font-weight:normal;font-stretch:normal;line-height:125%;letter-spacing:0px;word-spacing:0px;fill:#000000;fill-opacity:1;stroke:none;font-family:Arial;-inkscape-font-specification:Arial"
         id="text2993">
        <path
           d="m 375.04874,414.00815 3.78906,0.95703 c -0.7943,3.11198 -2.22659,5.48828 -4.29688,7.12891 -2.05731,1.6276 -4.57684,2.4414 -7.55859,2.4414 -3.08595,0 -5.59897,-0.625 -7.53906,-1.875 -1.92709,-1.26302 -3.39844,-3.08593 -4.41406,-5.46875 -1.00261,-2.3828 -1.50391,-4.94139 -1.50391,-7.67578 0,-2.98175 0.5664,-5.57941 1.69922,-7.79297 1.14583,-2.22654 2.76692,-3.91273 4.86328,-5.05859 2.10936,-1.15883 4.42707,-1.73825 6.95312,-1.73828 2.86457,3e-5 5.27342,0.72919 7.22657,2.1875 1.9531,1.45836 3.31377,3.50913 4.08203,6.15234 l -3.73047,0.87891 c -0.66409,-2.08331 -1.62763,-3.60024 -2.89063,-4.55078 -1.26304,-0.9505 -2.85158,-1.42576 -4.76562,-1.42579 -2.20053,3e-5 -4.04298,0.52737 -5.52734,1.58204 -1.47137,1.05471 -2.50652,2.47398 -3.10547,4.25781 -0.59897,1.77085 -0.89845,3.60028 -0.89844,5.48828 -1e-5,2.43491 0.35156,4.56381 1.05469,6.38672 0.71613,1.8099 1.8229,3.16407 3.32031,4.0625 1.49738,0.89844 3.11848,1.34766 4.86328,1.34765 2.12238,1e-5 3.91925,-0.61197 5.39063,-1.83593 1.47133,-1.22396 2.46742,-3.04036 2.98828,-5.44922"
           style=""
           id="path4578" />
        <path
           d="m 381.76749,413.67612 c 0,-3.84113 1.0677,-6.68618 3.20312,-8.53516 1.78385,-1.53644 3.95833,-2.30467 6.52344,-2.30469 2.85155,2e-5 5.18227,0.93752 6.99219,2.8125 1.80987,1.862 2.71482,4.44012 2.71484,7.73438 -2e-5,2.66928 -0.40367,4.77214 -1.21094,6.30859 -0.79429,1.52344 -1.95965,2.70834 -3.49609,3.55469 -1.52345,0.84635 -3.19012,1.26953 -5,1.26953 -2.90365,0 -5.25391,-0.93099 -7.05078,-2.79297 -1.78386,-1.86197 -2.67578,-4.54426 -2.67578,-8.04687 m 3.61328,0 c -10e-6,2.65625 0.57942,4.64844 1.73828,5.97656 1.15885,1.31511 2.61718,1.97266 4.375,1.97266 1.74478,0 3.1966,-0.66406 4.35547,-1.99219 1.15884,-1.32812 1.73826,-3.35286 1.73828,-6.07422 -2e-5,-2.56509 -0.58595,-4.50519 -1.75781,-5.82031 -1.15887,-1.32811 -2.60418,-1.99217 -4.33594,-1.99219 -1.75782,2e-5 -3.21615,0.65757 -4.375,1.97266 -1.15886,1.31511 -1.73829,3.30079 -1.73828,5.95703"
           style=""
           id="path4580" />
        <path
           d="m 405.34171,424.04721 0,-20.74219 3.16406,0 0,2.94922 c 1.52343,-2.27862 3.72395,-3.41795 6.60156,-3.41797 1.24999,2e-5 2.39582,0.22789 3.4375,0.6836 1.05467,0.44273 1.84243,1.02866 2.36328,1.75781 0.52082,0.72918 0.8854,1.59507 1.09375,2.59766 0.13019,0.65105 0.19529,1.79037 0.19531,3.41796 l 0,12.75391 -3.51562,0 0,-12.61719 c -2e-5,-1.43227 -0.13674,-2.49998 -0.41016,-3.20312 -0.27345,-0.71613 -0.76173,-1.28254 -1.46484,-1.69922 -0.69012,-0.42967 -1.50392,-0.64451 -2.44141,-0.64453 -1.4974,2e-5 -2.79297,0.47528 -3.88672,1.42578 -1.08073,0.95054 -1.6211,2.75392 -1.62109,5.41016 l 0,11.32812 -3.51562,0"
           style=""
           id="path4582" />
        <path
           d="m 435.28311,420.90268 0.50781,3.10547 c -0.98959,0.20833 -1.875,0.3125 -2.65625,0.3125 -1.27604,0 -2.26563,-0.20182 -2.96875,-0.60547 -0.70313,-0.40365 -1.19792,-0.93099 -1.48437,-1.58203 -0.28646,-0.66406 -0.42969,-2.05078 -0.42969,-4.16016 l 0,-11.93359 -2.57812,0 0,-2.73438 2.57812,0 0,-5.13672 3.4961,-2.10937 0,7.24609 3.53515,0 0,2.73438 -3.53515,0 0,12.1289 c -10e-6,1.00261 0.0586,1.64714 0.17578,1.9336 0.1302,0.28646 0.33202,0.51432 0.60547,0.68359 0.28645,0.16928 0.69009,0.25391 1.21093,0.25391 0.39062,0 0.90494,-0.0456 1.54297,-0.13672"
           style=""
           id="path4584" />
        <path
           d="m 438.66202,424.04721 0,-20.74219 3.16406,0 0,3.14453 c 0.80729,-1.47133 1.54947,-2.44138 2.22656,-2.91015 0.6901,-0.46873 1.44531,-0.70311 2.26563,-0.70313 1.18488,2e-5 2.38931,0.37763 3.61328,1.13282 l -1.21094,3.26171 c -0.85939,-0.50779 -1.71876,-0.7617 -2.57812,-0.76171 -0.76824,1e-5 -1.45835,0.23439 -2.07032,0.70312 -0.61198,0.45575 -1.04818,1.09377 -1.30859,1.91406 -0.39063,1.25002 -0.58594,2.6172 -0.58594,4.10157 l 0,10.85937 -3.51562,0"
           style=""
           id="path4586" />
        <path
           d="m 450.75186,413.67612 c 0,-3.84113 1.06771,-6.68618 3.20313,-8.53516 1.78384,-1.53644 3.95832,-2.30467 6.52343,-2.30469 2.85155,2e-5 5.18228,0.93752 6.99219,2.8125 1.80988,1.862 2.71482,4.44012 2.71485,7.73438 -3e-5,2.66928 -0.40367,4.77214 -1.21094,6.30859 -0.79429,1.52344 -1.95966,2.70834 -3.4961,3.55469 -1.52345,0.84635 -3.19011,1.26953 -5,1.26953 -2.90365,0 -5.25391,-0.93099 -7.05078,-2.79297 -1.78385,-1.86197 -2.67578,-4.54426 -2.67578,-8.04687 m 3.61328,0 c 0,2.65625 0.57942,4.64844 1.73828,5.97656 1.15885,1.31511 2.61718,1.97266 4.375,1.97266 1.74478,0 3.1966,-0.66406 4.35547,-1.99219 1.15884,-1.32812 1.73827,-3.35286 1.73828,-6.07422 -1e-5,-2.56509 -0.58595,-4.50519 -1.75781,-5.82031 -1.15887,-1.32811 -2.60418,-1.99217 -4.33594,-1.99219 -1.75782,2e-5 -3.21615,0.65757 -4.375,1.97266 -1.15886,1.31511 -1.73828,3.30079 -1.73828,5.95703"
           style=""
           id="path4588" />
        <path
           d="m 474.24796,424.04721 0,-28.63281 3.51562,0 0,28.63281 -3.51562,0"
           style=""
           id="path4590" />
        <path
           d="m 496.76749,421.48862 c -1.3021,1.10677 -2.55861,1.88802 -3.76953,2.34375 -1.19793,0.45573 -2.48699,0.68359 -3.86719,0.68359 -2.27865,0 -4.02995,-0.55338 -5.25391,-1.66016 -1.22396,-1.11978 -1.83594,-2.54556 -1.83594,-4.27734 0,-1.01562 0.22787,-1.9401 0.6836,-2.77344 0.46875,-0.84634 1.07421,-1.52342 1.8164,-2.03125 0.75521,-0.5078 1.60156,-0.89191 2.53907,-1.15234 0.69009,-0.18228 1.73176,-0.35806 3.125,-0.52734 2.83853,-0.33853 4.92837,-0.74218 6.26953,-1.21094 0.013,-0.48176 0.0195,-0.78775 0.0195,-0.91797 -2e-5,-1.43228 -0.33205,-2.44139 -0.99609,-3.02734 -0.89846,-0.79426 -2.23309,-1.19139 -4.00391,-1.19141 -1.65366,2e-5 -2.87761,0.29299 -3.67188,0.87891 -0.78125,0.57293 -1.36068,1.59506 -1.73828,3.0664 l -3.4375,-0.46875 c 0.3125,-1.47134 0.82682,-2.65623 1.54297,-3.55469 0.71614,-0.91143 1.7513,-1.60805 3.10547,-2.08984 1.35416,-0.49477 2.92317,-0.74217 4.70703,-0.74219 1.77082,2e-5 3.20962,0.20836 4.31641,0.625 1.10675,0.41669 1.92055,0.94403 2.4414,1.58203 0.52082,0.62502 0.8854,1.41929 1.09375,2.38282 0.11717,0.59897 0.17577,1.6797 0.17579,3.24218 l 0,4.6875 c -2e-5,3.26824 0.0716,5.33855 0.21484,6.21094 0.15623,0.85938 0.45571,1.6862 0.89844,2.48047 l -3.67188,0 c -0.3646,-0.72917 -0.59897,-1.58203 -0.70312,-2.55859 m -0.29297,-7.85157 c -1.27606,0.52085 -3.19012,0.96356 -5.74219,1.32813 -1.44532,0.20834 -2.46746,0.44272 -3.06641,0.70312 -0.59896,0.26043 -1.0612,0.64454 -1.38671,1.15235 -0.32553,0.4948 -0.48829,1.04818 -0.48829,1.66015 0,0.93751 0.35156,1.71876 1.05469,2.34375 0.71614,0.62501 1.75781,0.93751 3.125,0.9375 1.35416,1e-5 2.55858,-0.29296 3.61328,-0.8789 1.05468,-0.59896 1.82942,-1.41276 2.32422,-2.44141 0.37759,-0.79426 0.56639,-1.96614 0.56641,-3.51562 l 0,-1.28907"
           style=""
           id="path4592" />
        <path
           d="m 518.95499,424.04721 0,-2.61719 c -1.31512,2.0573 -3.24871,3.08594 -5.80078,3.08594 -1.65366,0 -3.1771,-0.45573 -4.57032,-1.36719 -1.38021,-0.91145 -2.45443,-2.18098 -3.22265,-3.80859 -0.75521,-1.64062 -1.13282,-3.52213 -1.13282,-5.64453 0,-2.0703 0.34505,-3.9453 1.03516,-5.625 0.6901,-1.69269 1.72526,-2.98826 3.10547,-3.88672 1.3802,-0.89842 2.92317,-1.34764 4.62891,-1.34766 1.24998,2e-5 2.36326,0.26695 3.33984,0.80078 0.97655,0.52086 1.77082,1.20445 2.38281,2.05079 l 0,-10.27344 3.4961,0 0,28.63281 -3.26172,0 m -11.11328,-10.35156 c -10e-6,2.65626 0.55989,4.64193 1.67968,5.95703 1.11979,1.31511 2.4414,1.97266 3.96485,1.97266 1.53644,0 2.83852,-0.625 3.90625,-1.875 1.08071,-1.26302 1.62107,-3.18359 1.62109,-5.76172 -2e-5,-2.83853 -0.54689,-4.92186 -1.64062,-6.25 -1.09377,-1.32811 -2.44142,-1.99217 -4.04297,-1.99219 -1.56251,2e-5 -2.8711,0.63804 -3.92578,1.91406 -1.04168,1.27606 -1.56251,3.28778 -1.5625,6.03516"
           style=""
           id="path4594" />
        <path
           d="m 526.45499,413.67612 c 0,-3.84113 1.0677,-6.68618 3.20312,-8.53516 1.78385,-1.53644 3.95833,-2.30467 6.52344,-2.30469 2.85155,2e-5 5.18227,0.93752 6.99219,2.8125 1.80987,1.862 2.71482,4.44012 2.71484,7.73438 -2e-5,2.66928 -0.40367,4.77214 -1.21094,6.30859 -0.79429,1.52344 -1.95965,2.70834 -3.49609,3.55469 -1.52345,0.84635 -3.19012,1.26953 -5,1.26953 -2.90365,0 -5.25391,-0.93099 -7.05078,-2.79297 -1.78386,-1.86197 -2.67578,-4.54426 -2.67578,-8.04687 m 3.61328,0 c -10e-6,2.65625 0.57942,4.64844 1.73828,5.97656 1.15885,1.31511 2.61718,1.97266 4.375,1.97266 1.74478,0 3.1966,-0.66406 4.35547,-1.99219 1.15884,-1.32812 1.73826,-3.35286 1.73828,-6.07422 -2e-5,-2.56509 -0.58595,-4.50519 -1.75781,-5.82031 -1.15887,-1.32811 -2.60418,-1.99217 -4.33594,-1.99219 -1.75782,2e-5 -3.21615,0.65757 -4.375,1.97266 -1.15886,1.31511 -1.73829,3.30079 -1.73828,5.95703"
           style=""
           id="path4596" />
        <path
           d="m 549.99014,424.04721 0,-20.74219 3.16407,0 0,3.14453 c 0.80728,-1.47133 1.54947,-2.44138 2.22656,-2.91015 0.69009,-0.46873 1.4453,-0.70311 2.26562,-0.70313 1.18489,2e-5 2.38931,0.37763 3.61328,1.13282 l -1.21093,3.26171 c -0.85939,-0.50779 -1.71876,-0.7617 -2.57813,-0.76171 -0.76824,1e-5 -1.45834,0.23439 -2.07031,0.70312 -0.61199,0.45575 -1.04818,1.09377 -1.30859,1.91406 -0.39064,1.25002 -0.58595,2.6172 -0.58594,4.10157 l 0,10.85937 -3.51563,0"
           style=""
           id="path4598" />
      </g>
      <path
         transform="matrix(1.0183963,0,0,0.96831128,597.18705,180.04637)"
         style="fill:#b7c4c8;fill-opacity:1;stroke:#02070c;stroke-width:1.49425614;stroke-linecap:butt;stroke-linejoin:miter;stroke-miterlimit:4;stroke-dashoffset:0;stroke-opacity:1"
         inkscape:transform-center-x="271.73103"
         inkscape:transform-center-y="90"
         d="m 330.31989,346.29178 c 0,51.0471 -39.34669,92.42895 -87.88328,92.42895 -48.53658,0 -87.88327,-41.38185 -87.88327,-92.42895 0,-51.0471 39.34669,-92.42896 87.88327,-92.42896 48.53659,0 87.88328,41.38186 87.88328,92.42896 z"
         id="path2997" />
      <path
         transform="matrix(1.0183963,0,0,0.96831128,397.17684,413.39162)"
         style="fill:#b7c4c8;fill-opacity:1;stroke:#02070c;stroke-width:1.49425614;stroke-linecap:butt;stroke-linejoin:miter;stroke-miterlimit:4;stroke-dashoffset:0;stroke-opacity:1"
         inkscape:transform-center-x="271.73103"
         inkscape:transform-center-y="90"
         d="m 330.31989,346.29178 c 0,51.0471 -39.34669,92.42895 -87.88328,92.42895 -48.53658,0 -87.88327,-41.38185 -87.88327,-92.42895 0,-51.0471 39.34669,-92.42896 87.88327,-92.42896 48.53659,0 87.88328,41.38186 87.88328,92.42896 z"
         id="path2999" />
      <g
         style="font-size:40px;font-style:normal;font-variant:normal;font-weight:normal;font-stretch:normal;line-height:125%;letter-spacing:0px;word-spacing:0px;fill:#000000;fill-opacity:1;stroke:none;font-family:Arial;-inkscape-font-specification:Arial"
         id="text3001">
        <path
           d="m 774.72528,417.98639 0,-28.63281 5.70313,0 6.77734,20.27343 c 0.62498,1.88803 1.08071,3.30079 1.36719,4.23829 0.3255,-1.04167 0.83331,-2.57161 1.52343,-4.58985 l 6.85547,-19.92187 5.09766,0 0,28.63281 -3.65234,0 0,-23.96484 -8.32032,23.96484 -3.41797,0 -8.28125,-24.375 0,24.375 -3.65234,0"
           style=""
           id="path4603" />
        <path
           d="m 806.44403,407.6153 c 0,-3.84114 1.06771,-6.68619 3.20313,-8.53516 1.78384,-1.53644 3.95832,-2.30467 6.52343,-2.30469 2.85155,2e-5 5.18228,0.93752 6.99219,2.8125 1.80988,1.862 2.71482,4.44012 2.71484,7.73438 -2e-5,2.66928 -0.40366,4.77214 -1.21093,6.30859 -0.79429,1.52344 -1.95966,2.70834 -3.4961,3.55469 -1.52345,0.84635 -3.19011,1.26953 -5,1.26953 -2.90365,0 -5.25391,-0.93099 -7.05078,-2.79297 -1.78385,-1.86197 -2.67578,-4.54426 -2.67578,-8.04687 m 3.61328,0 c 0,2.65625 0.57942,4.64844 1.73828,5.97656 1.15885,1.31511 2.61718,1.97266 4.375,1.97265 1.74478,1e-5 3.1966,-0.66406 4.35547,-1.99218 1.15884,-1.32812 1.73827,-3.35286 1.73828,-6.07422 -10e-6,-2.56509 -0.58595,-4.5052 -1.75781,-5.82031 -1.15887,-1.32811 -2.60418,-1.99217 -4.33594,-1.99219 -1.75782,2e-5 -3.21615,0.65757 -4.375,1.97265 -1.15886,1.31512 -1.73828,3.3008 -1.73828,5.95704"
           style=""
           id="path4605" />
        <path
           d="m 843.47528,417.98639 0,-2.61719 c -1.31512,2.05729 -3.24871,3.08594 -5.80078,3.08594 -1.65365,0 -3.17709,-0.45573 -4.57031,-1.36719 -1.38022,-0.91145 -2.45443,-2.18098 -3.22266,-3.80859 -0.75521,-1.64062 -1.13281,-3.52213 -1.13281,-5.64453 0,-2.0703 0.34505,-3.9453 1.03515,-5.625 0.69011,-1.69269 1.72526,-2.98827 3.10547,-3.88672 1.3802,-0.89842 2.92317,-1.34764 4.62891,-1.34766 1.24999,2e-5 2.36327,0.26695 3.33984,0.80078 0.97655,0.52086 1.77082,1.20445 2.38282,2.05078 l 0,-10.27343 3.49609,0 0,28.63281 -3.26172,0 M 832.362,407.63483 c -10e-6,2.65625 0.55989,4.64193 1.67969,5.95703 1.11978,1.31511 2.44139,1.97266 3.96484,1.97265 1.53645,1e-5 2.83853,-0.62499 3.90625,-1.875 1.08071,-1.26301 1.62108,-3.18358 1.62109,-5.76171 -10e-6,-2.83853 -0.54689,-4.92186 -1.64062,-6.25 -1.09376,-1.32811 -2.44142,-1.99217 -4.04297,-1.99219 -1.56251,2e-5 -2.8711,0.63804 -3.92578,1.91406 -1.04167,1.27606 -1.56251,3.28777 -1.5625,6.03516"
           style=""
           id="path4607" />
        <path
           d="m 866.48309,411.3067 3.63282,0.44922 c -0.57294,2.1224 -1.63414,3.76953 -3.1836,4.94141 -1.54949,1.17187 -3.52866,1.75781 -5.9375,1.75781 -3.03386,0 -5.44271,-0.93099 -7.22656,-2.79297 -1.77084,-1.875 -2.65625,-4.49869 -2.65625,-7.87109 0,-3.48957 0.89843,-6.1979 2.69531,-8.125 1.79687,-1.92707 4.1276,-2.89061 6.99219,-2.89063 2.77342,2e-5 5.03905,0.94403 6.79687,2.83203 1.7578,1.88804 2.6367,4.54429 2.63672,7.96875 -2e-5,0.20835 -0.007,0.52085 -0.0195,0.9375 l -15.46875,0 c 0.13021,2.27866 0.77474,4.02345 1.9336,5.23438 1.15884,1.21094 2.60415,1.81641 4.33593,1.8164 1.28905,1e-5 2.38931,-0.33853 3.30078,-1.01562 0.91145,-0.67708 1.6341,-1.75781 2.16797,-3.24219 m -11.54297,-5.68359 11.58204,0 c -0.15627,-1.74478 -0.59898,-3.05337 -1.32813,-3.92578 -1.11981,-1.35415 -2.57163,-2.03124 -4.35547,-2.03125 -1.61459,10e-6 -2.97527,0.54038 -4.08203,1.62109 -1.09376,1.08075 -1.69922,2.52606 -1.81641,4.33594"
           style=""
           id="path4609" />
        <path
           d="m 874.47137,417.98639 0,-28.63281 3.51563,0 0,28.63281 -3.51563,0"
           style=""
           id="path4611" />
        <path
           d="m 882.14716,407.6153 c -10e-6,-3.84114 1.0677,-6.68619 3.20312,-8.53516 1.78385,-1.53644 3.95833,-2.30467 6.52344,-2.30469 2.85155,2e-5 5.18227,0.93752 6.99219,2.8125 1.80987,1.862 2.71482,4.44012 2.71484,7.73438 -2e-5,2.66928 -0.40367,4.77214 -1.21094,6.30859 -0.79429,1.52344 -1.95965,2.70834 -3.49609,3.55469 -1.52345,0.84635 -3.19012,1.26953 -5,1.26953 -2.90366,0 -5.25391,-0.93099 -7.05078,-2.79297 -1.78386,-1.86197 -2.67579,-4.54426 -2.67578,-8.04687 m 3.61328,0 c -10e-6,2.65625 0.57942,4.64844 1.73828,5.97656 1.15884,1.31511 2.61718,1.97266 4.375,1.97265 1.74478,1e-5 3.1966,-0.66406 4.35547,-1.99218 1.15883,-1.32812 1.73826,-3.35286 1.73828,-6.07422 -2e-5,-2.56509 -0.58596,-4.5052 -1.75781,-5.82031 -1.15887,-1.32811 -2.60418,-1.99217 -4.33594,-1.99219 -1.75782,2e-5 -3.21616,0.65757 -4.375,1.97265 -1.15886,1.31512 -1.73829,3.3008 -1.73828,5.95704"
           style=""
           id="path4613" />
      </g>
      <g
         style="font-size:40px;font-style:normal;font-variant:normal;font-weight:normal;font-stretch:normal;line-height:125%;letter-spacing:0px;word-spacing:0px;fill:#000000;fill-opacity:1;stroke:none;font-family:Arial;-inkscape-font-specification:Arial"
         id="text3005">
        <path
           d="m 607.25958,874.57532 -11.09375,-28.63282 4.10157,0 7.4414,20.80079 c 0.59895,1.66667 1.10025,3.22917 1.50391,4.6875 0.44269,-1.5625 0.95701,-3.125 1.54297,-4.6875 l 7.73437,-20.80079 3.86719,0 -11.21094,28.63282 -3.88672,0"
           style=""
           id="path4616" />
        <path
           d="m 624.66193,849.98547 0,-4.04297 3.51562,0 0,4.04297 -3.51562,0 m 0,24.58985 0,-20.74219 3.51562,0 0,20.74219 -3.51562,0"
           style=""
           id="path4618" />
        <path
           d="m 632.1424,868.38391 3.47656,-0.54687 c 0.19531,1.39323 0.73567,2.46094 1.62109,3.20312 0.89843,0.74219 2.14843,1.11328 3.75,1.11328 1.61457,0 2.81249,-0.32552 3.59375,-0.97656 0.78124,-0.66406 1.17186,-1.4388 1.17188,-2.32422 -2e-5,-0.79426 -0.34507,-1.41926 -1.03516,-1.875 -0.48178,-0.31249 -1.6797,-0.70963 -3.59375,-1.19141 -2.57813,-0.65103 -4.3685,-1.21092 -5.37109,-1.67968 -0.98959,-0.48176 -1.7448,-1.13931 -2.26563,-1.97266 -0.50781,-0.84634 -0.76172,-1.77733 -0.76172,-2.79297 0,-0.92446 0.20833,-1.77732 0.625,-2.55859 0.42969,-0.79425 1.00911,-1.45181 1.73828,-1.97266 0.54687,-0.40362 1.28906,-0.74216 2.22657,-1.01562 0.95051,-0.28644 1.96613,-0.42967 3.04687,-0.42969 1.62759,2e-5 3.05337,0.2344 4.27735,0.70312 1.23696,0.46877 2.14842,1.1068 2.73437,1.91407 0.58592,0.79429 0.98957,1.86199 1.21094,3.20312 l -3.4375,0.46875 c -0.15627,-1.06769 -0.612,-1.90102 -1.36719,-2.5 -0.7422,-0.59894 -1.79689,-0.89842 -3.16406,-0.89844 -1.61459,2e-5 -2.76694,0.26695 -3.45703,0.80079 -0.69011,0.53387 -1.03517,1.15887 -1.03516,1.875 -10e-6,0.45574 0.14322,0.8659 0.42969,1.23046 0.28645,0.37762 0.73567,0.69012 1.34765,0.9375 0.35156,0.13023 1.38671,0.42971 3.10547,0.89844 2.48697,0.66408 4.21874,1.21095 5.19532,1.64063 0.98956,0.41667 1.7643,1.02865 2.32421,1.83593 0.55988,0.8073 0.83983,1.80991 0.83985,3.00782 -2e-5,1.17188 -0.34507,2.27865 -1.03516,3.32031 -0.6771,1.02865 -1.66017,1.82943 -2.94922,2.40234 -1.28907,0.5599 -2.74741,0.83985 -4.375,0.83985 -2.69532,0 -4.75261,-0.5599 -6.17187,-1.67969 -1.40625,-1.11979 -2.30469,-2.77994 -2.69531,-4.98047"
           style=""
           id="path4620" />
        <path
           d="m 661.22443,871.43079 0.50781,3.10546 c -0.98959,0.20834 -1.87501,0.3125 -2.65625,0.3125 -1.27605,0 -2.26563,-0.20182 -2.96875,-0.60546 -0.70313,-0.40365 -1.19792,-0.93099 -1.48438,-1.58204 -0.28646,-0.66406 -0.42969,-2.05077 -0.42968,-4.16015 l 0,-11.9336 -2.57813,0 0,-2.73437 2.57813,0 0,-5.13672 3.49609,-2.10937 0,7.24609 3.53516,0 0,2.73437 -3.53516,0 0,12.12891 c -10e-6,1.00261 0.0586,1.64714 0.17578,1.93359 0.1302,0.28647 0.33203,0.51433 0.60547,0.6836 0.28645,0.16927 0.6901,0.25391 1.21094,0.2539 0.39061,10e-6 0.90494,-0.0456 1.54297,-0.13671"
           style=""
           id="path4622" />
        <path
           d="m 678.17755,872.01672 c -1.3021,1.10678 -2.55861,1.88803 -3.76953,2.34375 -1.19793,0.45573 -2.48699,0.6836 -3.86719,0.6836 -2.27865,0 -4.02995,-0.55339 -5.2539,-1.66016 -1.22396,-1.11979 -1.83594,-2.54557 -1.83594,-4.27734 0,-1.01562 0.22786,-1.9401 0.68359,-2.77344 0.46875,-0.84635 1.07422,-1.52343 1.81641,-2.03125 0.7552,-0.5078 1.60156,-0.89192 2.53906,-1.15234 0.6901,-0.18228 1.73176,-0.35807 3.125,-0.52735 2.83853,-0.33853 4.92837,-0.74217 6.26953,-1.21094 0.013,-0.48175 0.0195,-0.78774 0.0195,-0.91796 -10e-6,-1.43228 -0.33204,-2.44139 -0.99609,-3.02735 -0.89845,-0.79425 -2.23309,-1.19139 -4.00391,-1.1914 -1.65365,10e-6 -2.87761,0.29298 -3.67187,0.8789 -0.78126,0.57294 -1.36068,1.59507 -1.73828,3.06641 l -3.4375,-0.46875 c 0.3125,-1.47134 0.82682,-2.65623 1.54297,-3.55469 0.71614,-0.91144 1.75129,-1.60805 3.10547,-2.08984 1.35415,-0.49477 2.92316,-0.74217 4.70703,-0.74219 1.77082,2e-5 3.20962,0.20835 4.3164,0.625 1.10676,0.41669 1.92056,0.94403 2.44141,1.58203 0.52081,0.62502 0.8854,1.41929 1.09375,2.38281 0.11717,0.59898 0.17576,1.67971 0.17578,3.24219 l 0,4.6875 c -2e-5,3.26824 0.0716,5.33855 0.21484,6.21094 0.15623,0.85938 0.45571,1.6862 0.89844,2.48047 l -3.67187,0 c -0.3646,-0.72917 -0.59898,-1.58203 -0.70313,-2.5586 m -0.29297,-7.85156 c -1.27605,0.52084 -3.19011,0.96355 -5.74218,1.32813 -1.44533,0.20834 -2.46746,0.44271 -3.06641,0.70312 -0.59897,0.26043 -1.06121,0.64454 -1.38672,1.15234 -0.32553,0.4948 -0.48829,1.04819 -0.48828,1.66016 -1e-5,0.93751 0.35156,1.71875 1.05469,2.34375 0.71614,0.625 1.7578,0.9375 3.125,0.9375 1.35415,0 2.55858,-0.29297 3.61328,-0.87891 1.05467,-0.59895 1.82941,-1.41275 2.32422,-2.4414 0.37758,-0.79427 0.56639,-1.96614 0.5664,-3.51563 l 0,-1.28906"
           style=""
           id="path4624" />
      </g>
      <path
         inkscape:connector-curvature="0"
         id="path3783"
         d="m -155.56349,531.12347 196.5206,0"
         style="fill:none;stroke:#000000;stroke-width:4.45155907;stroke-linecap:round;stroke-linejoin:miter;stroke-miterlimit:4;stroke-opacity:1;stroke-dasharray:none;marker-end:url(#Arrow2Lend)" />
      <path
         inkscape:connector-curvature="0"
         id="path3785"
         d="m 252.53814,529.10316 119.198,0"
         style="fill:none;stroke:#000000;stroke-width:4.45155954;stroke-linecap:round;stroke-linejoin:miter;stroke-miterlimit:4;stroke-opacity:1;stroke-dasharray:none;marker-end:url(#Arrow2Lend)" />
      <path
         transform="translate(0,287.36218)"
         inkscape:connector-curvature="0"
         id="path3791"
         d="m 563.66512,191.23335 179.80715,0"
         style="fill:none;stroke:#000000;stroke-width:4.45155907;stroke-linecap:round;stroke-linejoin:miter;stroke-miterlimit:4;stroke-opacity:1;stroke-dasharray:none;marker-end:url(#Arrow2Lend)" />
      <path
         transform="translate(0,287.36218)"
         inkscape:connector-curvature="0"
         id="path3793"
         d="m 745.49258,253.86281 -171.72593,0"
         style="fill:none;stroke:#000000;stroke-width:4.45155907;stroke-linecap:round;stroke-linejoin:miter;stroke-miterlimit:4;stroke-opacity:1;stroke-dasharray:none;marker-end:url(#Arrow2Lend)" />
      <path
         transform="translate(0,287.36218)"
         inkscape:connector-curvature="0"
         id="path3795"
         d="m 521.23871,318.51258 64.64977,64.64976"
         style="fill:none;stroke:#000000;stroke-width:4.45155907;stroke-linecap:round;stroke-linejoin:miter;stroke-miterlimit:4;stroke-opacity:1;stroke-dasharray:none;marker-end:url(#Arrow2Lend)" />
      <path
         transform="translate(0,287.36218)"
         inkscape:connector-curvature="0"
         id="path3797"
         d="m 545.48237,476.09637 -686.90373,0"
         style="fill:none;stroke:#000000;stroke-width:4.45155907;stroke-linecap:round;stroke-linejoin:miter;stroke-miterlimit:4;stroke-opacity:1;stroke-dasharray:none;marker-end:url(#Arrow2Lend)" />
      <g
         style="font-size:24px;font-style:normal;font-variant:normal;font-weight:normal;font-stretch:normal;line-height:125%;letter-spacing:0px;word-spacing:0px;fill:#000000;fill-opacity:1;stroke:none;font-family:Arial;-inkscape-font-specification:Arial"
         id="text4429">
        <path
           d="m -141.85963,514.961 0,-17.17969 2.10937,0 0,6.16406 c 0.98437,-1.14061 2.22656,-1.71092 3.72656,-1.71093 0.92187,10e-6 1.72265,0.1836 2.40235,0.55078 0.67967,0.35938 1.16405,0.85938 1.45312,1.5 0.29687,0.64063 0.4453,1.57032 0.44531,2.78906 l 0,7.88672 -2.10937,0 0,-7.88672 c -1e-5,-1.05468 -0.23048,-1.8203 -0.69141,-2.29688 -0.45313,-0.48436 -1.09766,-0.72655 -1.93359,-0.72656 -0.62501,1e-5 -1.21485,0.16408 -1.76953,0.49219 -0.54688,0.32032 -0.93751,0.75782 -1.17188,1.3125 -0.23438,0.5547 -0.35156,1.32032 -0.35156,2.29687 l 0,6.8086 -2.10937,0"
           style=""
           id="path4627" />
        <path
           d="m -123.89479,513.07428 0.30469,1.86328 c -0.59376,0.125 -1.12501,0.1875 -1.59375,0.1875 -0.76563,0 -1.35938,-0.12109 -1.78125,-0.36328 -0.42188,-0.24219 -0.71876,-0.55859 -0.89063,-0.94922 -0.17188,-0.39843 -0.25781,-1.23047 -0.25781,-2.49609 l 0,-7.16016 -1.54688,0 0,-1.64062 1.54688,0 0,-3.08204 2.09766,-1.26562 0,4.34766 2.12109,0 0,1.64062 -2.12109,0 0,7.27734 c -1e-5,0.60157 0.0352,0.98829 0.10546,1.16016 0.0781,0.17188 0.19922,0.3086 0.36329,0.41016 0.17187,0.10156 0.41405,0.15234 0.72656,0.15234 0.23437,0 0.54296,-0.0273 0.92578,-0.082"
           style=""
           id="path4629" />
        <path
           d="m -117.23854,513.07428 0.30469,1.86328 c -0.59376,0.125 -1.12501,0.1875 -1.59375,0.1875 -0.76563,0 -1.35938,-0.12109 -1.78125,-0.36328 -0.42188,-0.24219 -0.71876,-0.55859 -0.89063,-0.94922 -0.17188,-0.39843 -0.25781,-1.23047 -0.25781,-2.49609 l 0,-7.16016 -1.54688,0 0,-1.64062 1.54688,0 0,-3.08204 2.09766,-1.26562 0,4.34766 2.12109,0 0,1.64062 -2.12109,0 0,7.27734 c -1e-5,0.60157 0.0352,0.98829 0.10546,1.16016 0.0781,0.17188 0.19922,0.3086 0.36329,0.41016 0.17187,0.10156 0.41405,0.15234 0.72656,0.15234 0.23437,0 0.54296,-0.0273 0.92578,-0.082"
           style=""
           id="path4631" />
        <path
           d="m -115.18776,519.73053 0,-17.21484 1.92188,0 0,1.61718 c 0.45312,-0.6328 0.96483,-1.10545 1.53515,-1.41797 0.57031,-0.3203 1.26171,-0.48045 2.07422,-0.48046 1.06249,10e-6 1.99999,0.27345 2.8125,0.82031 0.81249,0.54688 1.42577,1.32032 1.83984,2.32031 0.41405,0.9922 0.62109,2.08204 0.6211,3.26953 -1e-5,1.27344 -0.23048,2.42188 -0.69141,3.44531 -0.45313,1.01563 -1.1172,1.79688 -1.99219,2.34375 -0.86719,0.53907 -1.78125,0.8086 -2.74218,0.8086 -0.70313,0 -1.33595,-0.14844 -1.89844,-0.44531 -0.55469,-0.29688 -1.01172,-0.67188 -1.37109,-1.125 l 0,6.05859 -2.10938,0 m 1.91016,-10.92188 c -10e-6,1.60157 0.32421,2.78516 0.97265,3.55079 0.64844,0.76562 1.43359,1.14843 2.35547,1.14843 0.93749,0 1.73827,-0.39453 2.40235,-1.18359 0.67186,-0.79687 1.0078,-2.02734 1.00781,-3.69141 -1e-5,-1.58593 -0.32814,-2.77342 -0.98438,-3.5625 -0.64844,-0.78905 -1.42579,-1.18358 -2.33203,-1.18359 -0.89844,1e-5 -1.69532,0.42189 -2.39062,1.26562 -0.68751,0.83595 -1.03126,2.0547 -1.03125,3.65625"
           style=""
           id="path4633" />
        <path
           d="m -95.195572,514.961 0,-12.44531 1.898438,0 0,1.88671 c 0.484371,-0.8828 0.929683,-1.46483 1.335937,-1.74609 0.414057,-0.28124 0.867182,-0.42186 1.359375,-0.42187 0.710931,10e-6 1.433586,0.22657 2.167969,0.67968 l -0.726563,1.95703 c -0.515632,-0.30467 -1.031256,-0.45702 -1.546875,-0.45703 -0.460943,10e-6 -0.875005,0.14064 -1.242187,0.42188 -0.367192,0.27345 -0.628911,0.65626 -0.785156,1.14844 -0.234379,0.75 -0.351567,1.57032 -0.351563,2.46093 l 0,6.51563 -2.109375,0"
           style=""
           id="path4635" />
        <path
           d="m -78.636978,510.95319 2.179687,0.26953 c -0.343762,1.27344 -0.98048,2.26172 -1.910156,2.96484 -0.929697,0.70313 -2.117196,1.05469 -3.5625,1.05469 -1.820317,0 -3.265628,-0.55859 -4.335937,-1.67578 -1.062502,-1.125 -1.593751,-2.69922 -1.59375,-4.72266 -10e-7,-2.09374 0.539061,-3.71874 1.617187,-4.875 1.078122,-1.15624 2.476558,-1.73436 4.195313,-1.73437 1.664054,10e-6 3.023427,0.56641 4.078125,1.69921 1.054675,1.13283 1.582018,2.72658 1.582031,4.78125 -1.3e-5,0.12501 -0.0039,0.31251 -0.01172,0.5625 l -9.28125,0 c 0.07812,1.3672 0.46484,2.41407 1.160156,3.14063 0.695308,0.72656 1.562495,1.08984 2.601563,1.08984 0.77343,0 1.433585,-0.20312 1.980469,-0.60937 0.546865,-0.40625 0.980459,-1.05469 1.300781,-1.94531 m -6.925781,-3.41016 6.949218,0 c -0.09376,-1.04687 -0.359384,-1.83202 -0.796875,-2.35547 -0.671883,-0.81249 -1.542976,-1.21874 -2.613281,-1.21875 -0.968756,10e-6 -1.785161,0.32423 -2.449219,0.97266 -0.656253,0.64844 -1.019534,1.51563 -1.089843,2.60156"
           style=""
           id="path4637" />
        <path
           d="m -65.863541,519.73053 0,-6.09375 c -0.328134,0.46094 -0.789071,0.84375 -1.382812,1.14844 -0.585945,0.30468 -1.210945,0.45703 -1.875,0.45703 -1.476567,0 -2.750004,-0.58984 -3.820313,-1.76953 -1.062501,-1.17969 -1.59375,-2.79687 -1.59375,-4.85157 0,-1.24999 0.214843,-2.37108 0.644532,-3.36328 0.437498,-0.99217 1.066403,-1.74217 1.886718,-2.25 0.828121,-0.51561 1.73437,-0.77342 2.71875,-0.77343 1.539055,10e-6 2.749992,0.64845 3.632813,1.94531 l 0,-1.66406 1.898437,0 0,17.21484 -2.109375,0 m -6.503906,-11.02734 c -3e-6,1.60156 0.335934,2.80469 1.007813,3.60937 0.67187,0.79688 1.476557,1.19531 2.414062,1.19531 0.89843,0 1.671867,-0.3789 2.320313,-1.13672 0.648428,-0.76562 0.972646,-1.92577 0.972656,-3.48046 -1e-5,-1.65625 -0.34376,-2.90234 -1.03125,-3.73829 -0.679696,-0.83592 -1.480476,-1.25389 -2.402344,-1.2539 -0.914068,10e-6 -1.691411,0.39063 -2.332031,1.17187 -0.632816,0.77345 -0.949222,1.98439 -0.949219,3.63282"
           style=""
           id="path4639" />
        <path
           d="m -52.281509,514.961 0,-1.82813 c -0.968759,1.40625 -2.285164,2.10938 -3.949219,2.10938 -0.73438,0 -1.42188,-0.14063 -2.0625,-0.42188 -0.632816,-0.28125 -1.105472,-0.63281 -1.417969,-1.05468 -0.304689,-0.42969 -0.519533,-0.95313 -0.644531,-1.57032 -0.08594,-0.41406 -0.128908,-1.07031 -0.128906,-1.96875 l 0,-7.71093 2.109375,0 0,6.90234 c -4e-6,1.10157 0.04297,1.84375 0.128906,2.22656 0.132808,0.55469 0.414058,0.99219 0.84375,1.3125 0.429682,0.3125 0.960932,0.46875 1.59375,0.46875 0.632806,0 1.226555,-0.16015 1.78125,-0.48047 0.554679,-0.32812 0.945303,-0.76952 1.171875,-1.32422 0.234365,-0.56249 0.351553,-1.37499 0.351562,-2.4375 l 0,-6.66796 2.109375,0 0,12.44531 -1.886718,0"
           style=""
           id="path4641" />
        <path
           d="m -38.558853,510.95319 2.179687,0.26953 c -0.343762,1.27344 -0.98048,2.26172 -1.910156,2.96484 -0.929697,0.70313 -2.117196,1.05469 -3.5625,1.05469 -1.820317,0 -3.265628,-0.55859 -4.335937,-1.67578 -1.062502,-1.125 -1.593751,-2.69922 -1.59375,-4.72266 -10e-7,-2.09374 0.539061,-3.71874 1.617187,-4.875 1.078122,-1.15624 2.476558,-1.73436 4.195313,-1.73437 1.664054,10e-6 3.023427,0.56641 4.078125,1.69921 1.054675,1.13283 1.582018,2.72658 1.582031,4.78125 -1.3e-5,0.12501 -0.0039,0.31251 -0.01172,0.5625 l -9.28125,0 c 0.07812,1.3672 0.46484,2.41407 1.160156,3.14063 0.695308,0.72656 1.562495,1.08984 2.601563,1.08984 0.77343,0 1.433585,-0.20312 1.980469,-0.60937 0.546865,-0.40625 0.980459,-1.05469 1.300781,-1.94531 m -6.925781,-3.41016 6.949218,0 c -0.09376,-1.04687 -0.359384,-1.83202 -0.796875,-2.35547 -0.671883,-0.81249 -1.542976,-1.21874 -2.613281,-1.21875 -0.968756,10e-6 -1.785161,0.32423 -2.449219,0.97266 -0.656253,0.64844 -1.019534,1.51563 -1.089843,2.60156"
           style=""
           id="path4643" />
        <path
           d="m -34.562759,511.24615 2.085937,-0.32812 c 0.117185,0.83594 0.441403,1.47656 0.972656,1.92187 0.539059,0.44532 1.289058,0.66797 2.25,0.66797 0.968743,0 1.687493,-0.19531 2.15625,-0.58593 0.468742,-0.39844 0.703116,-0.86328 0.703125,-1.39454 -9e-6,-0.47655 -0.20704,-0.85155 -0.621093,-1.125 -0.289071,-0.18749 -1.00782,-0.42577 -2.15625,-0.71484 -1.54688,-0.39062 -2.621098,-0.72656 -3.222657,-1.00781 -0.593752,-0.28906 -1.046877,-0.68359 -1.359375,-1.1836 -0.304688,-0.5078 -0.457032,-1.06639 -0.457031,-1.67578 -1e-6,-0.55467 0.124999,-1.06639 0.375,-1.53515 0.257811,-0.47655 0.605467,-0.87108 1.042969,-1.1836 0.328122,-0.24217 0.773434,-0.4453 1.335937,-0.60937 0.570308,-0.17186 1.179683,-0.2578 1.828125,-0.25781 0.976556,10e-6 1.832024,0.14063 2.566407,0.42187 0.742178,0.28126 1.289053,0.66408 1.640625,1.14844 0.351552,0.47657 0.593739,1.1172 0.726562,1.92187 l -2.0625,0.28125 c -0.09376,-0.64061 -0.367196,-1.14061 -0.820312,-1.5 -0.44532,-0.35936 -1.078132,-0.53905 -1.898438,-0.53906 -0.968755,10e-6 -1.66016,0.16017 -2.074219,0.48047 -0.414065,0.32032 -0.621097,0.69532 -0.621093,1.125 -4e-6,0.27345 0.08593,0.51954 0.257812,0.73828 0.171872,0.22657 0.441403,0.41407 0.808594,0.5625 0.210933,0.0781 0.832026,0.25782 1.863281,0.53906 1.49218,0.39845 2.531242,0.72657 3.117188,0.98438 0.59374,0.25 1.058583,0.61719 1.394531,1.10156 0.335926,0.48438 0.503895,1.08594 0.503906,1.80469 -1.1e-5,0.70313 -0.207042,1.36719 -0.621094,1.99219 -0.40626,0.61718 -0.996103,1.09765 -1.769531,1.4414 -0.773445,0.33594 -1.648444,0.50391 -2.625,0.50391 -1.617192,0 -2.851566,-0.33594 -3.703125,-1.00781 -0.843751,-0.67188 -1.382813,-1.66797 -1.617187,-2.98829"
           style=""
           id="path4645" />
        <path
           d="m -17.113541,513.07428 0.304688,1.86328 c -0.593756,0.125 -1.125006,0.1875 -1.59375,0.1875 -0.765629,0 -1.359379,-0.12109 -1.78125,-0.36328 -0.421878,-0.24219 -0.718753,-0.55859 -0.890625,-0.94922 -0.171877,-0.39843 -0.257815,-1.23047 -0.257813,-2.49609 l 0,-7.16016 -1.546875,0 0,-1.64062 1.546875,0 0,-3.08204 2.097657,-1.26562 0,4.34766 2.121093,0 0,1.64062 -2.121093,0 0,7.27734 c -4e-6,0.60157 0.03515,0.98829 0.105468,1.16016 0.07812,0.17188 0.199215,0.3086 0.363282,0.41016 0.17187,0.10156 0.414057,0.15234 0.726562,0.15234 0.23437,0 0.542963,-0.0273 0.925781,-0.082"
           style=""
           id="path4647" />
      </g>
      <path
         style="fill:#216778;fill-opacity:1;stroke:#02070c;stroke-width:4.45155907;stroke-linecap:round;stroke-linejoin:miter;stroke-miterlimit:4;stroke-dashoffset:0;stroke-opacity:1"
         d="m 1056.7096,252.32137 110.9367,0 c 2.2884,0 4.1307,1.84794 4.1307,4.14336 l 0,163.43921 c 0,2.29542 -1.8423,4.14336 -4.1307,4.14336 l -110.9367,0 c -2.2883,0 -4.1306,-1.84794 -4.1306,-4.14336 l 0,-163.43921 c 0,-2.29542 1.8423,-4.14336 4.1306,-4.14336 z"
         id="rect4437" />
      <g
         style="font-size:40px;font-style:normal;font-variant:normal;font-weight:normal;font-stretch:normal;line-height:125%;letter-spacing:0px;word-spacing:0px;fill:#000000;fill-opacity:1;stroke:none;font-family:Arial;-inkscape-font-specification:Arial"
         id="text4439">
        <path
           d="m 1081.9694,476.57526 0,-28.63282 9.8632,0 c 2.2266,3e-5 3.9258,0.13675 5.0977,0.41016 1.6406,0.37763 3.0403,1.06123 4.1992,2.05078 1.5104,1.27607 2.6367,2.91018 3.3789,4.90235 0.7552,1.97918 1.1328,4.2448 1.1328,6.79687 0,2.17449 -0.2539,4.10157 -0.7617,5.78125 -0.5078,1.67969 -1.1589,3.07292 -1.9531,4.17969 -0.7943,1.09375 -1.6667,1.95964 -2.6172,2.59765 -0.9375,0.62501 -2.0768,1.10027 -3.418,1.42579 -1.3281,0.32552 -2.8581,0.48828 -4.5898,0.48828 l -10.332,0 m 3.789,-3.37891 6.1133,0 c 1.888,0 3.3659,-0.17578 4.4336,-0.52734 1.0807,-0.35156 1.9401,-0.84635 2.5781,-1.48438 0.8984,-0.89843 1.5951,-2.10286 2.0899,-3.61328 0.5078,-1.52343 0.7617,-3.36587 0.7617,-5.52734 0,-2.99478 -0.4948,-5.29295 -1.4844,-6.89453 -0.9766,-1.61457 -2.168,-2.69529 -3.5742,-3.24219 -1.0157,-0.3906 -2.6498,-0.58591 -4.9024,-0.58594 l -6.0156,0 0,21.875"
           style=""
           id="path4651" />
        <path
           d="m 1110.7194,476.57526 0,-28.63282 10.7421,0 c 2.1875,3e-5 3.9388,0.293 5.254,0.87891 1.3281,0.57294 2.3632,1.46487 3.1054,2.67578 0.7552,1.19794 1.1328,2.45445 1.1328,3.76953 0,1.22398 -0.332,2.37632 -0.9961,3.45703 -0.664,1.08075 -1.6666,1.95314 -3.0078,2.61719 1.7318,0.50783 3.0599,1.37371 3.9844,2.59766 0.9375,1.22397 1.4062,2.66928 1.4063,4.33594 -10e-5,1.34115 -0.2865,2.59115 -0.8594,3.75 -0.5599,1.14583 -1.2566,2.03125 -2.0899,2.65625 -0.8333,0.625 -1.8815,1.10026 -3.1445,1.42578 -1.25,0.3125 -2.7865,0.46875 -4.6094,0.46875 l -10.9179,0 m 3.789,-16.60157 6.1914,0 c 1.6797,2e-5 2.8841,-0.11066 3.6133,-0.33203 0.9635,-0.28644 1.6862,-0.7617 2.168,-1.42578 0.4948,-0.66404 0.7421,-1.49737 0.7422,-2.5 -1e-4,-0.9505 -0.2279,-1.78383 -0.6836,-2.5 -0.4558,-0.72914 -1.1068,-1.22393 -1.9532,-1.48437 -0.8463,-0.27342 -2.2981,-0.41013 -4.3554,-0.41016 l -5.7227,0 0,8.65234 m 0,13.22266 7.1289,0 c 1.224,0 2.0833,-0.0456 2.5782,-0.13672 0.8723,-0.15624 1.6015,-0.41666 2.1875,-0.78125 0.5859,-0.36458 1.0676,-0.89192 1.4453,-1.58203 0.3776,-0.70312 0.5664,-1.51041 0.5664,-2.42187 0,-1.0677 -0.2735,-1.99218 -0.8203,-2.77344 -0.5469,-0.79426 -1.3087,-1.34765 -2.2852,-1.66016 -0.9636,-0.32551 -2.3568,-0.48827 -4.1797,-0.48828 l -6.6211,0 0,9.84375"
           style=""
           id="path4653" />
      </g>
      <path
         sodipodi:nodetypes="cc"
         style="fill:none;stroke:#000000;stroke-width:4.45155954;stroke-linecap:round;stroke-linejoin:miter;stroke-miterlimit:4;stroke-opacity:1;stroke-dasharray:none;marker-end:url(#Arrow2Lend)"
         d="M 899.94502,431.19248 1027.0704,359.91864"
         id="path4445"
         inkscape:connector-curvature="0" />
      <path
         inkscape:connector-curvature="0"
         id="path4447"
         d="M 1049.6372,409.2102 925.0994,484.91476"
         style="fill:none;stroke:#000000;stroke-width:4.45155954;stroke-linecap:round;stroke-linejoin:miter;stroke-miterlimit:4;stroke-opacity:1;stroke-dasharray:none;marker-end:url(#Arrow2Lend)"
         sodipodi:nodetypes="cc" />
      <g
         style="font-size:24px;font-style:normal;font-variant:normal;font-weight:normal;font-stretch:normal;line-height:125%;letter-spacing:0px;word-spacing:0px;fill:#000000;fill-opacity:1;stroke:none;font-family:Arial;-inkscape-font-specification:Arial"
         id="text4449">
        <path
           d="m 244.01863,747.29608 0,-17.17969 2.10938,0 0,6.16407 c 0.98437,-1.14062 2.22655,-1.71093 3.72656,-1.71094 0.92187,10e-6 1.72265,0.18361 2.40234,0.55078 0.67968,0.35939 1.16405,0.85939 1.45313,1.5 0.29686,0.64064 0.4453,1.57032 0.44531,2.78906 l 0,7.88672 -2.10938,0 0,-7.88672 c 0,-1.05468 -0.23047,-1.8203 -0.6914,-2.29687 -0.45313,-0.48437 -1.09767,-0.72655 -1.9336,-0.72656 -0.625,10e-6 -1.21484,0.16407 -1.76953,0.49218 -0.54688,0.32033 -0.9375,0.75782 -1.17187,1.3125 -0.23438,0.5547 -0.35157,1.32032 -0.35156,2.29688 l 0,6.80859 -2.10938,0"
           style=""
           id="path4656" />
        <path
           d="m 261.98347,745.40936 0.30469,1.86328 c -0.59375,0.125 -1.125,0.1875 -1.59375,0.1875 -0.76563,0 -1.35938,-0.12109 -1.78125,-0.36328 -0.42188,-0.24218 -0.71875,-0.55859 -0.89062,-0.94922 -0.17188,-0.39843 -0.25782,-1.23046 -0.25782,-2.49609 l 0,-7.16016 -1.54687,0 0,-1.64062 1.54687,0 0,-3.08203 2.09766,-1.26563 0,4.34766 2.12109,0 0,1.64062 -2.12109,0 0,7.27735 c 0,0.60156 0.0352,0.98828 0.10547,1.16015 0.0781,0.17188 0.19921,0.3086 0.36328,0.41016 0.17187,0.10156 0.41406,0.15235 0.72656,0.15234 0.23437,10e-6 0.54297,-0.0273 0.92578,-0.082"
           style=""
           id="path4658" />
        <path
           d="m 268.63972,745.40936 0.30469,1.86328 c -0.59375,0.125 -1.125,0.1875 -1.59375,0.1875 -0.76563,0 -1.35938,-0.12109 -1.78125,-0.36328 -0.42188,-0.24218 -0.71875,-0.55859 -0.89062,-0.94922 -0.17188,-0.39843 -0.25782,-1.23046 -0.25782,-2.49609 l 0,-7.16016 -1.54687,0 0,-1.64062 1.54687,0 0,-3.08203 2.09766,-1.26563 0,4.34766 2.12109,0 0,1.64062 -2.12109,0 0,7.27735 c 0,0.60156 0.0352,0.98828 0.10547,1.16015 0.0781,0.17188 0.19921,0.3086 0.36328,0.41016 0.17187,0.10156 0.41406,0.15235 0.72656,0.15234 0.23437,10e-6 0.54297,-0.0273 0.92578,-0.082"
           style=""
           id="path4660" />
        <path
           d="m 270.69051,752.06561 0,-17.21484 1.92187,0 0,1.61719 c 0.45312,-0.6328 0.96484,-1.10546 1.53516,-1.41797 0.5703,-0.3203 1.26171,-0.48046 2.07422,-0.48047 1.06249,10e-6 1.99999,0.27345 2.8125,0.82031 0.81249,0.54689 1.42577,1.32032 1.83984,2.32031 0.41405,0.9922 0.62108,2.08204 0.62109,3.26954 -10e-6,1.27344 -0.23048,2.42187 -0.6914,3.44531 -0.45314,1.01562 -1.1172,1.79687 -1.99219,2.34375 -0.8672,0.53906 -1.78126,0.80859 -2.74219,0.80859 -0.70313,0 -1.33594,-0.14844 -1.89844,-0.44531 -0.55469,-0.29688 -1.01172,-0.67188 -1.37109,-1.125 l 0,6.05859 -2.10937,0 m 1.91015,-10.92187 c 0,1.60156 0.32422,2.78516 0.97266,3.55078 0.64843,0.76563 1.43359,1.14844 2.35547,1.14844 0.93749,0 1.73827,-0.39453 2.40234,-1.1836 0.67187,-0.79687 1.0078,-2.02734 1.00781,-3.6914 -10e-6,-1.58593 -0.32813,-2.77343 -0.98437,-3.5625 -0.64845,-0.78906 -1.42579,-1.18359 -2.33203,-1.1836 -0.89845,10e-6 -1.69532,0.42189 -2.39063,1.26563 -0.6875,0.83594 -1.03125,2.05469 -1.03125,3.65625"
           style=""
           id="path4662" />
        <path
           d="m 290.68269,747.29608 0,-12.44531 1.89844,0 0,1.88672 c 0.48437,-0.8828 0.92968,-1.46483 1.33594,-1.7461 0.41406,-0.28123 0.86718,-0.42186 1.35937,-0.42187 0.71093,10e-6 1.43359,0.22657 2.16797,0.67969 l -0.72656,1.95703 c -0.51563,-0.30468 -1.03126,-0.45702 -1.54688,-0.45703 -0.46094,1e-5 -0.875,0.14063 -1.24218,0.42187 -0.36719,0.27345 -0.62891,0.65626 -0.78516,1.14844 -0.23438,0.75001 -0.35157,1.57032 -0.35156,2.46094 l 0,6.51562 -2.10938,0"
           style=""
           id="path4664" />
        <path
           d="m 307.24129,743.28827 2.17968,0.26953 c -0.34376,1.27344 -0.98048,2.26172 -1.91015,2.96484 -0.9297,0.70313 -2.1172,1.05469 -3.5625,1.05469 -1.82032,0 -3.26563,-0.55859 -4.33594,-1.67578 -1.0625,-1.125 -1.59375,-2.69921 -1.59375,-4.72266 0,-2.09374 0.53906,-3.71874 1.61719,-4.875 1.07812,-1.15623 2.47656,-1.73436 4.19531,-1.73437 1.66406,10e-6 3.02343,0.56642 4.07813,1.69922 1.05467,1.13282 1.58201,2.72657 1.58203,4.78125 -2e-5,0.125 -0.004,0.3125 -0.0117,0.5625 l -9.28125,0 c 0.0781,1.36719 0.46484,2.41406 1.16015,3.14062 0.69531,0.72657 1.5625,1.08985 2.60157,1.08985 0.77343,0 1.43358,-0.20313 1.98047,-0.60938 0.54686,-0.40625 0.98045,-1.05468 1.30078,-1.94531 m -6.92578,-3.41016 6.94921,0 c -0.0938,-1.04686 -0.35938,-1.83202 -0.79687,-2.35547 -0.67188,-0.81249 -1.54298,-1.21873 -2.61328,-1.21875 -0.96876,2e-5 -1.78516,0.32423 -2.44922,0.97266 -0.65625,0.64845 -1.01953,1.51563 -1.08984,2.60156"
           style=""
           id="path4666" />
        <path
           d="m 311.23738,743.58124 2.08594,-0.32813 c 0.11718,0.83594 0.4414,1.47657 0.97265,1.92188 0.53906,0.44531 1.28906,0.66797 2.25,0.66797 0.96875,0 1.6875,-0.19531 2.15625,-0.58594 0.46875,-0.39844 0.70312,-0.86328 0.70313,-1.39453 -10e-6,-0.47656 -0.20704,-0.85156 -0.62109,-1.125 -0.28907,-0.1875 -1.00782,-0.42578 -2.15625,-0.71485 -1.54688,-0.39062 -2.6211,-0.72655 -3.22266,-1.00781 -0.59375,-0.28905 -1.04688,-0.68359 -1.35938,-1.18359 -0.30468,-0.50781 -0.45703,-1.0664 -0.45703,-1.67578 0,-0.55468 0.125,-1.0664 0.375,-1.53516 0.25781,-0.47655 0.60547,-0.87108 1.04297,-1.18359 0.32812,-0.24218 0.77344,-0.4453 1.33594,-0.60938 0.57031,-0.17186 1.17968,-0.2578 1.82812,-0.25781 0.97656,10e-6 1.83203,0.14064 2.56641,0.42187 0.74218,0.28127 1.28905,0.66408 1.64063,1.14844 0.35155,0.47657 0.59374,1.1172 0.72656,1.92188 l -2.0625,0.28125 c -0.0938,-0.64062 -0.3672,-1.14062 -0.82031,-1.5 -0.44532,-0.35937 -1.07814,-0.53905 -1.89844,-0.53907 -0.96876,2e-5 -1.66016,0.16017 -2.07422,0.48047 -0.41407,0.32033 -0.6211,0.69533 -0.62109,1.125 -1e-5,0.27345 0.0859,0.51954 0.25781,0.73828 0.17187,0.22657 0.4414,0.41407 0.80859,0.5625 0.21094,0.0781 0.83203,0.25782 1.86328,0.53907 1.49218,0.39844 2.53124,0.72657 3.11719,0.98437 0.59374,0.25001 1.05858,0.61719 1.39453,1.10156 0.33593,0.48438 0.5039,1.08595 0.50391,1.80469 -1e-5,0.70313 -0.20704,1.36719 -0.6211,1.99219 -0.40626,0.61719 -0.9961,1.09766 -1.76953,1.44141 -0.77344,0.33593 -1.64844,0.5039 -2.625,0.5039 -1.61719,0 -2.85156,-0.33594 -3.70312,-1.00781 -0.84375,-0.67187 -1.38281,-1.66797 -1.61719,-2.98828"
           style=""
           id="path4668" />
        <path
           d="m 324.08113,752.06561 0,-17.21484 1.92188,0 0,1.61719 c 0.45312,-0.6328 0.96484,-1.10546 1.53515,-1.41797 0.57031,-0.3203 1.26171,-0.48046 2.07422,-0.48047 1.06249,10e-6 1.99999,0.27345 2.8125,0.82031 0.81249,0.54689 1.42577,1.32032 1.83984,2.32031 0.41406,0.9922 0.62109,2.08204 0.6211,3.26954 -1e-5,1.27344 -0.23048,2.42187 -0.69141,3.44531 -0.45313,1.01562 -1.1172,1.79687 -1.99219,2.34375 -0.86719,0.53906 -1.78125,0.80859 -2.74218,0.80859 -0.70313,0 -1.33595,-0.14844 -1.89844,-0.44531 -0.55469,-0.29688 -1.01172,-0.67188 -1.37109,-1.125 l 0,6.05859 -2.10938,0 m 1.91016,-10.92187 c -10e-6,1.60156 0.32421,2.78516 0.97265,3.55078 0.64844,0.76563 1.43359,1.14844 2.35547,1.14844 0.93749,0 1.73827,-0.39453 2.40235,-1.1836 0.67186,-0.79687 1.0078,-2.02734 1.00781,-3.6914 -1e-5,-1.58593 -0.32814,-2.77343 -0.98438,-3.5625 -0.64844,-0.78906 -1.42579,-1.18359 -2.33203,-1.1836 -0.89844,10e-6 -1.69532,0.42189 -2.39062,1.26563 -0.68751,0.83594 -1.03126,2.05469 -1.03125,3.65625"
           style=""
           id="path4670" />
        <path
           d="m 336.65535,741.07343 c 0,-2.30468 0.64062,-4.01171 1.92187,-5.1211 1.07031,-0.92186 2.375,-1.3828 3.91407,-1.38281 1.71093,10e-6 3.10936,0.56251 4.19531,1.6875 1.08593,1.1172 1.62889,2.66407 1.62891,4.64062 -2e-5,1.60157 -0.2422,2.86329 -0.72657,3.78516 -0.47657,0.91406 -1.17579,1.625 -2.09765,2.13281 -0.91407,0.50782 -1.91407,0.76172 -3,0.76172 -1.7422,0 -3.15235,-0.55859 -4.23047,-1.67578 -1.07032,-1.11718 -1.60547,-2.72656 -1.60547,-4.82812 m 2.16797,0 c 0,1.59375 0.34765,2.78906 1.04297,3.58593 0.69531,0.78907 1.5703,1.1836 2.625,1.1836 1.04686,0 1.91796,-0.39844 2.61328,-1.19532 0.6953,-0.79687 1.04296,-2.01171 1.04297,-3.64453 -10e-6,-1.53905 -0.35158,-2.70311 -1.05469,-3.49218 -0.69532,-0.79687 -1.56251,-1.19531 -2.60156,-1.19532 -1.0547,10e-6 -1.92969,0.39454 -2.625,1.1836 -0.69532,0.78907 -1.04297,1.98047 -1.04297,3.57422"
           style=""
           id="path4672" />
        <path
           d="m 350.79988,747.29608 0,-12.44531 1.89844,0 0,1.76953 c 0.91406,-1.36718 2.23437,-2.05077 3.96094,-2.05078 0.74999,10e-6 1.43749,0.13673 2.0625,0.41016 0.6328,0.26563 1.10545,0.61719 1.41796,1.05468 0.31249,0.43751 0.53124,0.95704 0.65625,1.5586 0.0781,0.39063 0.11718,1.07422 0.11719,2.05078 l 0,7.65234 -2.10937,0 0,-7.57031 c -10e-6,-0.85937 -0.082,-1.49999 -0.2461,-1.92188 -0.16407,-0.42967 -0.45704,-0.76952 -0.8789,-1.01953 -0.41407,-0.2578 -0.90235,-0.38671 -1.46485,-0.38672 -0.89844,10e-6 -1.67578,0.28517 -2.33203,0.85547 -0.64844,0.57032 -0.97266,1.65235 -0.97265,3.2461 l 0,6.79687 -2.10938,0"
           style=""
           id="path4674" />
        <path
           d="m 363.31551,743.58124 2.08593,-0.32813 c 0.11719,0.83594 0.44141,1.47657 0.97266,1.92188 0.53906,0.44531 1.28906,0.66797 2.25,0.66797 0.96874,0 1.68749,-0.19531 2.15625,-0.58594 0.46874,-0.39844 0.70312,-0.86328 0.70312,-1.39453 0,-0.47656 -0.20704,-0.85156 -0.62109,-1.125 -0.28907,-0.1875 -1.00782,-0.42578 -2.15625,-0.71485 -1.54688,-0.39062 -2.6211,-0.72655 -3.22266,-1.00781 -0.59375,-0.28905 -1.04687,-0.68359 -1.35937,-1.18359 -0.30469,-0.50781 -0.45703,-1.0664 -0.45703,-1.67578 0,-0.55468 0.125,-1.0664 0.375,-1.53516 0.25781,-0.47655 0.60547,-0.87108 1.04297,-1.18359 0.32812,-0.24218 0.77343,-0.4453 1.33593,-0.60938 0.57031,-0.17186 1.17969,-0.2578 1.82813,-0.25781 0.97656,10e-6 1.83202,0.14064 2.56641,0.42187 0.74217,0.28127 1.28905,0.66408 1.64062,1.14844 0.35155,0.47657 0.59374,1.1172 0.72656,1.92188 l -2.0625,0.28125 c -0.0937,-0.64062 -0.36719,-1.14062 -0.82031,-1.5 -0.44532,-0.35937 -1.07813,-0.53905 -1.89844,-0.53907 -0.96875,2e-5 -1.66016,0.16017 -2.07422,0.48047 -0.41406,0.32033 -0.62109,0.69533 -0.62109,1.125 0,0.27345 0.0859,0.51954 0.25781,0.73828 0.17187,0.22657 0.44141,0.41407 0.8086,0.5625 0.21093,0.0781 0.83202,0.25782 1.86328,0.53907 1.49218,0.39844 2.53124,0.72657 3.11719,0.98437 0.59374,0.25001 1.05858,0.61719 1.39453,1.10156 0.33592,0.48438 0.50389,1.08595 0.5039,1.80469 -10e-6,0.70313 -0.20704,1.36719 -0.62109,1.99219 -0.40626,0.61719 -0.9961,1.09766 -1.76953,1.44141 -0.77345,0.33593 -1.64845,0.5039 -2.625,0.5039 -1.61719,0 -2.85157,-0.33594 -3.70313,-1.00781 -0.84375,-0.67187 -1.38281,-1.66797 -1.61718,-2.98828"
           style=""
           id="path4676" />
        <path
           d="m 384.67879,743.28827 2.17968,0.26953 c -0.34376,1.27344 -0.98048,2.26172 -1.91015,2.96484 -0.9297,0.70313 -2.1172,1.05469 -3.5625,1.05469 -1.82032,0 -3.26563,-0.55859 -4.33594,-1.67578 -1.0625,-1.125 -1.59375,-2.69921 -1.59375,-4.72266 0,-2.09374 0.53906,-3.71874 1.61719,-4.875 1.07812,-1.15623 2.47656,-1.73436 4.19531,-1.73437 1.66406,10e-6 3.02343,0.56642 4.07813,1.69922 1.05467,1.13282 1.58201,2.72657 1.58203,4.78125 -2e-5,0.125 -0.004,0.3125 -0.0117,0.5625 l -9.28125,0 c 0.0781,1.36719 0.46484,2.41406 1.16015,3.14062 0.69531,0.72657 1.5625,1.08985 2.60157,1.08985 0.77343,0 1.43358,-0.20313 1.98047,-0.60938 0.54686,-0.40625 0.98045,-1.05468 1.30078,-1.94531 m -6.92578,-3.41016 6.94921,0 c -0.0938,-1.04686 -0.35938,-1.83202 -0.79687,-2.35547 -0.67188,-0.81249 -1.54298,-1.21873 -2.61328,-1.21875 -0.96876,2e-5 -1.78516,0.32423 -2.44922,0.97266 -0.65625,0.64845 -1.01953,1.51563 -1.08984,2.60156"
           style=""
           id="path4678" />
      </g>
      <g
         style="font-size:24px;font-style:normal;font-variant:normal;font-weight:normal;font-stretch:normal;line-height:125%;letter-spacing:0px;word-spacing:0px;fill:#000000;fill-opacity:1;stroke:none;font-family:Arial;-inkscape-font-specification:Arial"
         id="text4453">
        <path
           d="m 96.54808,518.38983 0,-2.42578 2.109375,0 0,2.42578 -2.109375,0 m 0,14.75391 0,-12.44531 2.109375,0 0,12.44531 -2.109375,0"
           style=""
           id="path4681" />
        <path
           d="m 101.88011,533.14374 0,-12.44531 1.89844,0 0,1.76953 c 0.91406,-1.36718 2.23437,-2.05077 3.96094,-2.05078 0.74999,10e-6 1.43749,0.13673 2.0625,0.41015 0.6328,0.26564 1.10545,0.6172 1.41797,1.05469 0.31248,0.43751 0.53123,0.95704 0.65625,1.55859 0.0781,0.39064 0.11717,1.07423 0.11718,2.05078 l 0,7.65235 -2.10937,0 0,-7.57031 c -1e-5,-0.85937 -0.082,-1.5 -0.2461,-1.92188 -0.16407,-0.42968 -0.45704,-0.76952 -0.8789,-1.01953 -0.41407,-0.2578 -0.90235,-0.38671 -1.46485,-0.38672 -0.89844,10e-6 -1.67578,0.28517 -2.33203,0.85547 -0.64844,0.57032 -0.97266,1.65235 -0.97265,3.24609 l 0,6.79688 -2.10938,0"
           style=""
           id="path4683" />
        <path
           d="m 123.31371,533.14374 0,-1.57031 c -0.78908,1.23437 -1.94923,1.85156 -3.48047,1.85156 -0.9922,0 -1.90626,-0.27344 -2.74219,-0.82031 -0.82813,-0.54688 -1.47266,-1.3086 -1.93359,-2.28516 -0.45313,-0.98437 -0.67969,-2.11328 -0.67969,-3.38672 0,-1.24218 0.20703,-2.36718 0.62109,-3.375 0.41406,-1.01561 1.03516,-1.79296 1.86328,-2.33203 0.82812,-0.53905 1.7539,-0.80858 2.77735,-0.80859 0.74999,10e-6 1.41796,0.16016 2.0039,0.48046 0.58593,0.31252 1.06249,0.72267 1.42969,1.23047 l 0,-6.16406 2.09766,0 0,17.17969 -1.95703,0 m -6.66797,-6.21094 c -1e-5,1.59375 0.33593,2.78516 1.00781,3.57422 0.67187,0.78906 1.46484,1.18359 2.37891,1.18359 0.92186,0 1.70311,-0.375 2.34375,-1.125 0.64842,-0.75781 0.97264,-1.91015 0.97265,-3.45703 -1e-5,-1.70312 -0.32813,-2.95311 -0.98437,-3.75 -0.65626,-0.79686 -1.46485,-1.1953 -2.42578,-1.19531 -0.93751,10e-6 -1.72267,0.38282 -2.35547,1.14844 -0.62501,0.76563 -0.93751,1.97266 -0.9375,3.62109"
           style=""
           id="path4685" />
        <path
           d="m 137.11839,529.13593 2.17969,0.26953 c -0.34376,1.27344 -0.98048,2.26172 -1.91016,2.96484 -0.92969,0.70313 -2.11719,1.05469 -3.5625,1.05469 -1.82031,0 -3.26562,-0.5586 -4.33593,-1.67578 -1.0625,-1.125 -1.59375,-2.69922 -1.59375,-4.72266 0,-2.09374 0.53906,-3.71874 1.61718,-4.875 1.07813,-1.15624 2.47656,-1.73436 4.19532,-1.73437 1.66405,10e-6 3.02342,0.56641 4.07812,1.69921 1.05468,1.13283 1.58202,2.72657 1.58203,4.78125 -1e-5,0.12501 -0.004,0.31251 -0.0117,0.5625 l -9.28125,0 c 0.0781,1.3672 0.46484,2.41407 1.16016,3.14063 0.69531,0.72656 1.56249,1.08984 2.60156,1.08984 0.77343,0 1.43359,-0.20312 1.98047,-0.60937 0.54687,-0.40625 0.98046,-1.05469 1.30078,-1.94531 m -6.92578,-3.41016 6.94922,0 c -0.0938,-1.04687 -0.35938,-1.83202 -0.79687,-2.35547 -0.67189,-0.81249 -1.54298,-1.21874 -2.61329,-1.21875 -0.96875,10e-6 -1.78516,0.32423 -2.44921,0.97266 -0.65626,0.64844 -1.01954,1.51563 -1.08985,2.60156"
           style=""
           id="path4687" />
        <path
           d="m 140.55199,533.14374 4.54687,-6.46875 -4.20703,-5.97656 2.63672,0 1.91016,2.91796 c 0.35937,0.5547 0.64843,1.01954 0.86718,1.39454 0.34375,-0.51562 0.66015,-0.97265 0.94922,-1.3711 l 2.09766,-2.9414 2.51953,0 -4.30078,5.85937 4.6289,6.58594 -2.58984,0 -2.55469,-3.86719 -0.67968,-1.04297 -3.26954,4.91016 -2.55468,0"
           style=""
           id="path4689" />
        <path
           d="m 154.36839,533.14374 0,-2.40235 2.40235,0 0,2.40235 -2.40235,0"
           style=""
           id="path4691" />
        <path
           d="m 160.42699,537.91327 0,-17.21484 1.92187,0 0,1.61718 c 0.45312,-0.6328 0.96484,-1.10545 1.53516,-1.41797 0.5703,-0.3203 1.26171,-0.48045 2.07422,-0.48046 1.06249,10e-6 1.99999,0.27345 2.8125,0.82031 0.81249,0.54688 1.42577,1.32032 1.83984,2.32031 0.41405,0.9922 0.62108,2.08204 0.62109,3.26953 -1e-5,1.27344 -0.23048,2.42188 -0.6914,3.44531 -0.45314,1.01563 -1.1172,1.79688 -1.99219,2.34375 -0.8672,0.53907 -1.78126,0.8086 -2.74219,0.8086 -0.70313,0 -1.33594,-0.14844 -1.89843,-0.44531 -0.5547,-0.29688 -1.01173,-0.67188 -1.3711,-1.125 l 0,6.05859 -2.10937,0 m 1.91015,-10.92188 c 0,1.60157 0.32422,2.78516 0.97266,3.55079 0.64843,0.76562 1.43359,1.14843 2.35547,1.14843 0.93749,0 1.73827,-0.39453 2.40234,-1.18359 0.67187,-0.79687 1.0078,-2.02734 1.00781,-3.69141 -1e-5,-1.58593 -0.32813,-2.77343 -0.98437,-3.5625 -0.64845,-0.78905 -1.42579,-1.18358 -2.33203,-1.18359 -0.89845,10e-6 -1.69532,0.42188 -2.39063,1.26562 -0.6875,0.83595 -1.03125,2.0547 -1.03125,3.65625"
           style=""
           id="path4693" />
        <path
           d="m 173.78636,533.14374 0,-17.17969 2.10938,0 0,6.16406 c 0.98437,-1.14061 2.22655,-1.71092 3.72656,-1.71093 0.92187,10e-6 1.72265,0.1836 2.40234,0.55078 0.67968,0.35938 1.16405,0.85938 1.45313,1.5 0.29686,0.64063 0.4453,1.57032 0.44531,2.78906 l 0,7.88672 -2.10937,0 0,-7.88672 c -10e-6,-1.05468 -0.23048,-1.8203 -0.69141,-2.29688 -0.45313,-0.48436 -1.09766,-0.72655 -1.93359,-0.72656 -0.62501,1e-5 -1.21485,0.16407 -1.76954,0.49219 -0.54688,0.32032 -0.9375,0.75782 -1.17187,1.3125 -0.23438,0.5547 -0.35157,1.32032 -0.35156,2.29687 l 0,6.8086 -2.10938,0"
           style=""
           id="path4695" />
        <path
           d="m 187.14574,537.91327 0,-17.21484 1.92187,0 0,1.61718 c 0.45312,-0.6328 0.96484,-1.10545 1.53516,-1.41797 0.5703,-0.3203 1.26171,-0.48045 2.07422,-0.48046 1.06249,10e-6 1.99999,0.27345 2.8125,0.82031 0.81249,0.54688 1.42577,1.32032 1.83984,2.32031 0.41405,0.9922 0.62108,2.08204 0.62109,3.26953 -1e-5,1.27344 -0.23048,2.42188 -0.6914,3.44531 -0.45314,1.01563 -1.1172,1.79688 -1.99219,2.34375 -0.8672,0.53907 -1.78126,0.8086 -2.74219,0.8086 -0.70313,0 -1.33594,-0.14844 -1.89843,-0.44531 -0.5547,-0.29688 -1.01173,-0.67188 -1.3711,-1.125 l 0,6.05859 -2.10937,0 m 1.91015,-10.92188 c 0,1.60157 0.32422,2.78516 0.97266,3.55079 0.64843,0.76562 1.43359,1.14843 2.35547,1.14843 0.93749,0 1.73827,-0.39453 2.40234,-1.18359 0.67187,-0.79687 1.0078,-2.02734 1.00781,-3.69141 -1e-5,-1.58593 -0.32813,-2.77343 -0.98437,-3.5625 -0.64845,-0.78905 -1.42579,-1.18358 -2.33203,-1.18359 -0.89845,10e-6 -1.69532,0.42188 -2.39063,1.26562 -0.6875,0.83595 -1.03125,2.0547 -1.03125,3.65625"
           style=""
           id="path4697" />
      </g>
      <g
         style="font-size:24px;font-style:normal;font-variant:normal;font-weight:normal;font-stretch:normal;line-height:125%;letter-spacing:0px;word-spacing:0px;fill:#000000;fill-opacity:1;stroke:none;font-family:Arial;-inkscape-font-specification:Arial"
         id="text4457">
        <path
           d="m 427.90628,520.50391 2.07422,0.26953 c -0.22657,1.42969 -0.80861,2.55078 -1.74609,3.36328 -0.9297,0.80469 -2.07423,1.20703 -3.4336,1.20703 -1.70313,0 -3.07422,-0.55469 -4.11328,-1.66406 -1.03125,-1.11719 -1.54688,-2.71484 -1.54687,-4.79297 -1e-5,-1.34374 0.22265,-2.51952 0.66796,-3.52735 0.44531,-1.0078 1.1211,-1.7617 2.02735,-2.26171 0.91406,-0.5078 1.90624,-0.76171 2.97656,-0.76172 1.35156,10e-6 2.45702,0.34376 3.31641,1.03125 0.85936,0.6797 1.41014,1.64845 1.65234,2.90625 l -2.05078,0.3164 c -0.19532,-0.83592 -0.54298,-1.46483 -1.04297,-1.88672 -0.49219,-0.42186 -1.08985,-0.6328 -1.79297,-0.63281 -1.0625,1e-5 -1.92578,0.38283 -2.58984,1.14844 -0.66407,0.75782 -0.9961,1.96095 -0.9961,3.60937 0,1.67188 0.32031,2.88673 0.96094,3.64454 0.64062,0.75781 1.47656,1.13672 2.50781,1.13671 0.82812,10e-6 1.51953,-0.2539 2.07422,-0.76171 0.55468,-0.50781 0.90624,-1.28906 1.05469,-2.34375"
           style=""
           id="path4700" />
        <path
           d="m 431.00003,518.83984 c 0,-2.30468 0.64062,-4.0117 1.92188,-5.12109 1.0703,-0.92186 2.37499,-1.3828 3.91406,-1.38281 1.71093,10e-6 3.10936,0.56251 4.19531,1.6875 1.08593,1.11719 1.62889,2.66407 1.62891,4.64062 -2e-5,1.60157 -0.2422,2.86329 -0.72657,3.78516 -0.47657,0.91406 -1.17579,1.625 -2.09765,2.13281 -0.91407,0.50781 -1.91407,0.76172 -3,0.76172 -1.74219,0 -3.15235,-0.55859 -4.23047,-1.67578 -1.07031,-1.11719 -1.60547,-2.72656 -1.60547,-4.82813 m 2.16797,0 c 0,1.59376 0.34765,2.78907 1.04297,3.58594 0.69531,0.78907 1.5703,1.1836 2.625,1.18359 1.04687,10e-6 1.91796,-0.39843 2.61328,-1.19531 0.6953,-0.79687 1.04296,-2.01171 1.04297,-3.64453 -10e-6,-1.53905 -0.35157,-2.70311 -1.05469,-3.49219 -0.69532,-0.79686 -1.56251,-1.1953 -2.60156,-1.19531 -1.0547,10e-6 -1.92969,0.39454 -2.625,1.18359 -0.69532,0.78908 -1.04297,1.98048 -1.04297,3.57422"
           style=""
           id="path4702" />
        <path
           d="m 445.14456,525.0625 0,-12.44531 1.89844,0 0,1.76953 c 0.91406,-1.36718 2.23437,-2.05077 3.96094,-2.05078 0.74999,10e-6 1.43749,0.13673 2.0625,0.41015 0.6328,0.26564 1.10545,0.6172 1.41797,1.05469 0.31248,0.43751 0.53123,0.95704 0.65625,1.55859 0.0781,0.39064 0.11717,1.07423 0.11718,2.05079 l 0,7.65234 -2.10937,0 0,-7.57031 c -10e-6,-0.85937 -0.082,-1.49999 -0.2461,-1.92188 -0.16407,-0.42968 -0.45704,-0.76952 -0.8789,-1.01953 -0.41407,-0.2578 -0.90235,-0.38671 -1.46485,-0.38672 -0.89844,1e-5 -1.67578,0.28517 -2.33203,0.85547 -0.64844,0.57032 -0.97266,1.65235 -0.97265,3.24609 l 0,6.79688 -2.10938,0"
           style=""
           id="path4704" />
        <path
           d="m 463.10941,523.17578 0.30468,1.86328 c -0.59375,0.125 -1.125,0.1875 -1.59375,0.1875 -0.76563,0 -1.35938,-0.12109 -1.78125,-0.36328 -0.42187,-0.24219 -0.71875,-0.55859 -0.89062,-0.94922 -0.17188,-0.39843 -0.25782,-1.23046 -0.25781,-2.49609 l 0,-7.16016 -1.54688,0 0,-1.64062 1.54688,0 0,-3.08203 2.09765,-1.26563 0,4.34766 2.1211,0 0,1.64062 -2.1211,0 0,7.27735 c 0,0.60156 0.0351,0.98828 0.10547,1.16015 0.0781,0.17188 0.19921,0.3086 0.36328,0.41016 0.17187,0.10156 0.41406,0.15234 0.72656,0.15234 0.23437,0 0.54297,-0.0273 0.92579,-0.082"
           style=""
           id="path4706" />
        <path
           d="m 465.13675,525.0625 0,-12.44531 1.89844,0 0,1.88672 c 0.48437,-0.8828 0.92968,-1.46484 1.33593,-1.7461 0.41406,-0.28123 0.86719,-0.42186 1.35938,-0.42187 0.71093,10e-6 1.43359,0.22657 2.16797,0.67968 l -0.72656,1.95704 c -0.51564,-0.30468 -1.03126,-0.45702 -1.54688,-0.45704 -0.46094,2e-5 -0.875,0.14064 -1.24219,0.42188 -0.36719,0.27345 -0.62891,0.65626 -0.78515,1.14844 -0.23438,0.75001 -0.35157,1.57032 -0.35157,2.46093 l 0,6.51563 -2.10937,0"
           style=""
           id="path4708" />
        <path
           d="m 472.39066,518.83984 c -1e-5,-2.30468 0.64062,-4.0117 1.92187,-5.12109 1.07031,-0.92186 2.375,-1.3828 3.91406,-1.38281 1.71093,10e-6 3.10937,0.56251 4.19532,1.6875 1.08592,1.11719 1.62889,2.66407 1.6289,4.64062 -1e-5,1.60157 -0.2422,2.86329 -0.72656,3.78516 -0.47657,0.91406 -1.17579,1.625 -2.09766,2.13281 -0.91407,0.50781 -1.91407,0.76172 -3,0.76172 -1.74219,0 -3.15234,-0.55859 -4.23047,-1.67578 -1.07031,-1.11719 -1.60547,-2.72656 -1.60546,-4.82813 m 2.16796,0 c 0,1.59376 0.34766,2.78907 1.04297,3.58594 0.69531,0.78907 1.57031,1.1836 2.625,1.18359 1.04687,10e-6 1.91796,-0.39843 2.61328,-1.19531 0.69531,-0.79687 1.04296,-2.01171 1.04297,-3.64453 -10e-6,-1.53905 -0.35157,-2.70311 -1.05468,-3.49219 -0.69533,-0.79686 -1.56251,-1.1953 -2.60157,-1.19531 -1.05469,10e-6 -1.92969,0.39454 -2.625,1.18359 -0.69531,0.78908 -1.04297,1.98048 -1.04297,3.57422"
           style=""
           id="path4710" />
        <path
           d="m 486.48831,525.0625 0,-17.17969 2.10938,0 0,17.17969 -2.10938,0"
           style=""
           id="path4712" />
        <path
           d="m 491.83206,525.0625 0,-17.17969 2.10938,0 0,17.17969 -2.10938,0"
           style=""
           id="path4714" />
        <path
           d="m 505.74222,521.05469 2.17969,0.26953 c -0.34377,1.27344 -0.98048,2.26172 -1.91016,2.96484 -0.9297,0.70313 -2.1172,1.05469 -3.5625,1.05469 -1.82032,0 -3.26563,-0.55859 -4.33594,-1.67578 -1.0625,-1.125 -1.59375,-2.69922 -1.59375,-4.72266 0,-2.09374 0.53906,-3.71874 1.61719,-4.875 1.07812,-1.15624 2.47656,-1.73436 4.19531,-1.73437 1.66406,10e-6 3.02343,0.56642 4.07813,1.69922 1.05467,1.13282 1.58202,2.72657 1.58203,4.78125 -10e-6,0.125 -0.004,0.3125 -0.0117,0.5625 l -9.28125,0 c 0.0781,1.36719 0.46484,2.41406 1.16016,3.14062 0.6953,0.72657 1.56249,1.08985 2.60156,1.08984 0.77343,10e-6 1.43358,-0.20312 1.98047,-0.60937 0.54686,-0.40625 0.98046,-1.05468 1.30078,-1.94531 m -6.92578,-3.41016 6.94922,0 c -0.0938,-1.04687 -0.35939,-1.83202 -0.79688,-2.35547 -0.67188,-0.81249 -1.54298,-1.21874 -2.61328,-1.21875 -0.96876,1e-5 -1.78516,0.32423 -2.44922,0.97266 -0.65625,0.64845 -1.01953,1.51563 -1.08984,2.60156"
           style=""
           id="path4716" />
        <path
           d="m 510.55862,525.0625 0,-12.44531 1.89844,0 0,1.88672 c 0.48437,-0.8828 0.92968,-1.46484 1.33594,-1.7461 0.41406,-0.28123 0.86718,-0.42186 1.35937,-0.42187 0.71093,10e-6 1.43359,0.22657 2.16797,0.67968 l -0.72656,1.95704 c -0.51563,-0.30468 -1.03126,-0.45702 -1.54687,-0.45704 -0.46095,2e-5 -0.87501,0.14064 -1.24219,0.42188 -0.36719,0.27345 -0.62891,0.65626 -0.78516,1.14844 -0.23438,0.75001 -0.35156,1.57032 -0.35156,2.46093 l 0,6.51563 -2.10938,0"
           style=""
           id="path4718" />
        <path
           d="m 517.75394,521.34766 2.08593,-0.32813 c 0.11719,0.83594 0.44141,1.47657 0.97266,1.92188 0.53906,0.44531 1.28906,0.66797 2.25,0.66796 0.96874,10e-6 1.68749,-0.19531 2.15625,-0.58593 0.46874,-0.39844 0.70312,-0.86328 0.70313,-1.39453 -10e-6,-0.47656 -0.20704,-0.85156 -0.6211,-1.125 -0.28907,-0.1875 -1.00782,-0.42578 -2.15625,-0.71485 -1.54688,-0.39062 -2.6211,-0.72655 -3.22265,-1.00781 -0.59376,-0.28906 -1.04688,-0.68359 -1.35938,-1.18359 -0.30469,-0.50781 -0.45703,-1.0664 -0.45703,-1.67579 0,-0.55467 0.125,-1.06639 0.375,-1.53515 0.25781,-0.47655 0.60547,-0.87108 1.04297,-1.1836 0.32812,-0.24217 0.77343,-0.4453 1.33594,-0.60937 0.5703,-0.17186 1.17968,-0.2578 1.82812,-0.25781 0.97656,10e-6 1.83202,0.14064 2.56641,0.42187 0.74218,0.28126 1.28905,0.66408 1.64062,1.14844 0.35155,0.47657 0.59374,1.1172 0.72656,1.92187 l -2.0625,0.28125 c -0.0937,-0.64061 -0.36719,-1.14061 -0.82031,-1.5 -0.44532,-0.35936 -1.07813,-0.53905 -1.89844,-0.53906 -0.96875,1e-5 -1.66016,0.16017 -2.07421,0.48047 -0.41407,0.32032 -0.6211,0.69532 -0.6211,1.125 0,0.27345 0.0859,0.51954 0.25781,0.73828 0.17188,0.22657 0.44141,0.41407 0.8086,0.5625 0.21093,0.0781 0.83202,0.25782 1.86328,0.53906 1.49218,0.39845 2.53124,0.72657 3.11719,0.98438 0.59374,0.25001 1.05858,0.61719 1.39453,1.10156 0.33592,0.48438 0.50389,1.08594 0.5039,1.80469 -10e-6,0.70313 -0.20704,1.36719 -0.62109,1.99219 -0.40626,0.61719 -0.9961,1.09765 -1.76953,1.4414 -0.77345,0.33594 -1.64845,0.50391 -2.625,0.50391 -1.61719,0 -2.85157,-0.33594 -3.70313,-1.00781 -0.84375,-0.67188 -1.38281,-1.66797 -1.61718,-2.98828"
           style=""
           id="path4720" />
        <path
           d="m 529.01566,525.35547 4.98046,-17.76563 1.6875,0 -4.96875,17.76563 -1.69921,0"
           style=""
           id="path4722" />
      </g>
      <g
         style="font-size:24px;font-style:normal;font-variant:normal;font-weight:normal;font-stretch:normal;line-height:125%;letter-spacing:0px;word-spacing:0px;fill:#000000;fill-opacity:1;stroke:none;font-family:Arial;-inkscape-font-specification:Arial"
         id="text4461">
        <path
           d="m 801.62286,525.06256 0,-12.44531 1.88672,0 0,1.74609 c 0.39062,-0.60936 0.91015,-1.09764 1.5586,-1.46484 0.64843,-0.37499 1.38671,-0.56249 2.21484,-0.5625 0.92187,10e-6 1.67577,0.19142 2.26172,0.57422 0.59374,0.38282 1.01171,0.91798 1.25391,1.60547 0.98436,-1.45312 2.26561,-2.17968 3.84375,-2.17969 1.23435,10e-6 2.18357,0.34376 2.84765,1.03125 0.66405,0.6797 0.99608,1.73048 0.9961,3.15234 l 0,8.54297 -2.09766,0 0,-7.83984 c -2e-5,-0.84374 -0.0703,-1.44921 -0.21094,-1.81641 -0.13283,-0.37499 -0.37892,-0.67577 -0.73828,-0.90234 -0.35939,-0.22655 -0.78126,-0.33984 -1.26562,-0.33985 -0.87502,10e-6 -1.60158,0.29298 -2.17969,0.87891 -0.57814,0.57813 -0.8672,1.50782 -0.86719,2.78906 l 0,7.23047 -2.10937,0 0,-8.08594 c -10e-6,-0.93749 -0.17189,-1.64061 -0.51563,-2.10937 -0.34376,-0.46874 -0.90626,-0.70312 -1.6875,-0.70313 -0.59376,10e-6 -1.14454,0.15626 -1.65234,0.46875 -0.50001,0.31251 -0.86329,0.76954 -1.08985,1.3711 -0.22656,0.60157 -0.33984,1.46875 -0.33984,2.60156 l 0,6.45703 -2.10938,0"
           style=""
           id="path4725" />
        <path
           d="m 820.90021,518.8399 c 0,-2.30467 0.64062,-4.0117 1.92187,-5.12109 1.07031,-0.92186 2.375,-1.3828 3.91407,-1.38281 1.71092,10e-6 3.10936,0.56251 4.19531,1.6875 1.08592,1.1172 1.62889,2.66407 1.6289,4.64062 -10e-6,1.60157 -0.2422,2.86329 -0.72656,3.78516 -0.47657,0.91406 -1.17579,1.625 -2.09765,2.13281 -0.91408,0.50781 -1.91408,0.76172 -3,0.76172 -1.7422,0 -3.15235,-0.55859 -4.23047,-1.67578 -1.07032,-1.11719 -1.60547,-2.72656 -1.60547,-4.82813 m 2.16797,0 c -10e-6,1.59376 0.34765,2.78907 1.04297,3.58594 0.6953,0.78907 1.5703,1.1836 2.625,1.1836 1.04686,0 1.91796,-0.39844 2.61328,-1.19532 0.6953,-0.79687 1.04295,-2.01171 1.04297,-3.64453 -2e-5,-1.53905 -0.35158,-2.70311 -1.05469,-3.49219 -0.69532,-0.79686 -1.56251,-1.1953 -2.60156,-1.19531 -1.0547,10e-6 -1.9297,0.39454 -2.625,1.1836 -0.69532,0.78907 -1.04298,1.98047 -1.04297,3.57421"
           style=""
           id="path4727" />
        <path
           d="m 843.11896,525.06256 0,-1.57031 c -0.78907,1.23437 -1.94923,1.85156 -3.48047,1.85156 -0.99219,0 -1.90626,-0.27344 -2.74219,-0.82031 -0.82813,-0.54688 -1.47266,-1.30859 -1.93359,-2.28516 -0.45313,-0.98437 -0.67969,-2.11327 -0.67969,-3.38672 0,-1.24218 0.20703,-2.36718 0.62109,-3.375 0.41406,-1.01561 1.03516,-1.79295 1.86329,-2.33203 0.82812,-0.53905 1.7539,-0.80858 2.77734,-0.80859 0.74999,10e-6 1.41796,0.16017 2.00391,0.48047 0.58592,0.31251 1.06249,0.72267 1.42968,1.23047 l 0,-6.16407 2.09766,0 0,17.17969 -1.95703,0 m -6.66797,-6.21094 c 0,1.59376 0.33593,2.78516 1.00781,3.57422 0.67187,0.78907 1.46484,1.1836 2.37891,1.1836 0.92187,0 1.70311,-0.375 2.34375,-1.125 0.64843,-0.75781 0.97264,-1.91016 0.97265,-3.45704 -10e-6,-1.70311 -0.32813,-2.95311 -0.98437,-3.75 -0.65626,-0.79686 -1.46485,-1.1953 -2.42578,-1.19531 -0.93751,10e-6 -1.72266,0.38283 -2.35547,1.14844 -0.625,0.76563 -0.9375,1.97266 -0.9375,3.62109"
           style=""
           id="path4729" />
        <path
           d="m 856.92365,521.05475 2.17968,0.26953 c -0.34376,1.27344 -0.98048,2.26172 -1.91015,2.96484 -0.9297,0.70313 -2.1172,1.05469 -3.5625,1.05469 -1.82032,0 -3.26563,-0.55859 -4.33594,-1.67578 -1.0625,-1.125 -1.59375,-2.69921 -1.59375,-4.72266 0,-2.09374 0.53906,-3.71874 1.61719,-4.875 1.07812,-1.15623 2.47655,-1.73436 4.19531,-1.73437 1.66405,10e-6 3.02343,0.56642 4.07812,1.69922 1.05468,1.13282 1.58202,2.72657 1.58204,4.78125 -2e-5,0.125 -0.004,0.3125 -0.0117,0.5625 l -9.28125,0 c 0.0781,1.36719 0.46484,2.41406 1.16015,3.14062 0.69531,0.72657 1.5625,1.08985 2.60157,1.08985 0.77342,0 1.43358,-0.20313 1.98046,-0.60938 0.54687,-0.40625 0.98046,-1.05468 1.30079,-1.94531 m -6.92579,-3.41016 6.94922,0 c -0.0938,-1.04686 -0.35938,-1.83202 -0.79687,-2.35547 -0.67189,-0.81249 -1.54298,-1.21874 -2.61328,-1.21875 -0.96876,10e-6 -1.78516,0.32423 -2.44922,0.97266 -0.65626,0.64845 -1.01954,1.51563 -1.08985,2.60156"
           style=""
           id="path4731" />
        <path
           d="m 861.71661,525.06256 0,-17.17969 2.10938,0 0,17.17969 -2.10938,0"
           style=""
           id="path4733" />
        <path
           d="m 866.26349,521.34772 2.08594,-0.32813 c 0.11718,0.83594 0.4414,1.47657 0.97265,1.92188 0.53906,0.44531 1.28906,0.66797 2.25,0.66797 0.96875,0 1.68749,-0.19531 2.15625,-0.58594 0.46874,-0.39844 0.70312,-0.86328 0.70313,-1.39453 -10e-6,-0.47656 -0.20704,-0.85156 -0.6211,-1.125 -0.28907,-0.1875 -1.00782,-0.42578 -2.15625,-0.71485 -1.54688,-0.39062 -2.62109,-0.72655 -3.22265,-1.00781 -0.59375,-0.28905 -1.04688,-0.68359 -1.35938,-1.18359 -0.30469,-0.50781 -0.45703,-1.0664 -0.45703,-1.67578 0,-0.55468 0.125,-1.0664 0.375,-1.53516 0.25781,-0.47655 0.60547,-0.87108 1.04297,-1.18359 0.32812,-0.24218 0.77343,-0.4453 1.33594,-0.60938 0.57031,-0.17186 1.17968,-0.2578 1.82812,-0.25781 0.97656,10e-6 1.83203,0.14064 2.56641,0.42187 0.74218,0.28127 1.28905,0.66408 1.64062,1.14844 0.35156,0.47657 0.59374,1.1172 0.72657,1.92188 l -2.0625,0.28125 c -0.0938,-0.64062 -0.3672,-1.14062 -0.82032,-1.5 -0.44532,-0.35937 -1.07813,-0.53906 -1.89843,-0.53907 -0.96876,10e-6 -1.66016,0.16017 -2.07422,0.48047 -0.41407,0.32032 -0.6211,0.69532 -0.6211,1.125 0,0.27345 0.0859,0.51954 0.25782,0.73828 0.17187,0.22657 0.4414,0.41407 0.80859,0.5625 0.21093,0.0781 0.83203,0.25782 1.86328,0.53907 1.49218,0.39844 2.53124,0.72657 3.11719,0.98437 0.59374,0.25001 1.05858,0.61719 1.39453,1.10156 0.33593,0.48438 0.5039,1.08595 0.50391,1.80469 -10e-6,0.70313 -0.20705,1.36719 -0.6211,1.99219 -0.40626,0.61719 -0.9961,1.09766 -1.76953,1.4414 -0.77344,0.33594 -1.64844,0.50391 -2.625,0.50391 -1.61719,0 -2.85156,-0.33594 -3.70312,-1.00781 -0.84376,-0.67188 -1.38282,-1.66797 -1.61719,-2.98828"
           style=""
           id="path4735" />
        <path
           d="m 877.52521,525.35553 4.98047,-17.76563 1.6875,0 -4.96875,17.76563 -1.69922,0"
           style=""
           id="path4737" />
      </g>
      <g
         style="font-size:24px;font-style:normal;font-variant:normal;font-weight:normal;font-stretch:normal;line-height:125%;letter-spacing:0px;word-spacing:0px;fill:#000000;fill-opacity:1;stroke:none;font-family:Arial;-inkscape-font-specification:Arial"
         id="text4465">
        <path
           d="m 613.15088,757.39764 -4.73438,-12.44531 2.22657,0 2.67187,7.45313 c 0.28906,0.80469 0.55468,1.64062 0.79688,2.50781 0.18749,-0.65625 0.44921,-1.44531 0.78515,-2.36719 l 2.76563,-7.59375 2.16797,0 -4.71094,12.44531 -1.96875,0"
           style=""
           id="path4740" />
        <path
           d="m 621.75244,742.64374 0,-2.42578 2.10938,0 0,2.42578 -2.10938,0 m 0,14.7539 0,-12.44531 2.10938,0 0,12.44531 -2.10938,0"
           style=""
           id="path4742" />
        <path
           d="m 635.604,753.38983 2.17969,0.26953 c -0.34376,1.27344 -0.98048,2.26172 -1.91015,2.96485 -0.9297,0.70312 -2.1172,1.05468 -3.5625,1.05468 -1.82032,0 -3.26563,-0.55859 -4.33594,-1.67578 -1.0625,-1.12499 -1.59375,-2.69921 -1.59375,-4.72265 0,-2.09375 0.53906,-3.71874 1.61719,-4.875 1.07812,-1.15624 2.47655,-1.73437 4.19531,-1.73438 1.66405,1e-5 3.02343,0.56642 4.07812,1.69922 1.05468,1.13282 1.58202,2.72657 1.58203,4.78125 -1e-5,0.12501 -0.004,0.31251 -0.0117,0.5625 l -9.28125,0 c 0.0781,1.36719 0.46484,2.41407 1.16015,3.14063 0.69531,0.72656 1.5625,1.08984 2.60156,1.08984 0.77343,0 1.43359,-0.20312 1.98047,-0.60938 0.54687,-0.40624 0.98046,-1.05468 1.30078,-1.94531 m -6.92578,-3.41015 6.94922,0 c -0.0938,-1.04687 -0.35938,-1.83203 -0.79687,-2.35547 -0.67189,-0.81249 -1.54298,-1.21874 -2.61328,-1.21875 -0.96876,1e-5 -1.78517,0.32423 -2.44922,0.97265 -0.65626,0.64845 -1.01954,1.51564 -1.08985,2.60157"
           style=""
           id="path4744" />
        <path
           d="m 642.74072,757.39764 -3.80859,-12.44531 2.17969,0 1.98047,7.1836 0.73828,2.67187 c 0.0312,-0.13281 0.24608,-0.98828 0.64453,-2.56641 l 1.98047,-7.28906 2.16797,0 1.86328,7.21875 0.62109,2.37891 0.71484,-2.40235 2.13282,-7.19531 2.05078,0 -3.89063,12.44531 -2.1914,0 -1.98047,-7.45312 -0.48047,-2.12109 -2.51953,9.57421 -2.20313,0"
           style=""
           id="path4746" />
        <path
           d="m 656.99072,753.6828 2.08594,-0.32812 c 0.11718,0.83594 0.4414,1.47656 0.97266,1.92187 0.53905,0.44531 1.28905,0.66797 2.25,0.66797 0.96874,0 1.68749,-0.19531 2.15625,-0.58594 0.46874,-0.39843 0.70311,-0.86328 0.70312,-1.39453 -10e-6,-0.47656 -0.20704,-0.85156 -0.62109,-1.125 -0.28907,-0.18749 -1.00782,-0.42578 -2.15625,-0.71484 -1.54688,-0.39062 -2.6211,-0.72656 -3.22266,-1.00782 -0.59375,-0.28905 -1.04688,-0.68358 -1.35937,-1.18359 -0.30469,-0.5078 -0.45704,-1.0664 -0.45703,-1.67578 -1e-5,-0.55468 0.12499,-1.0664 0.375,-1.53516 0.25781,-0.47655 0.60546,-0.87108 1.04296,-1.18359 0.32813,-0.24218 0.77344,-0.4453 1.33594,-0.60938 0.57031,-0.17186 1.17968,-0.2578 1.82813,-0.25781 0.97655,1e-5 1.83202,0.14064 2.5664,0.42188 0.74218,0.28126 1.28906,0.66407 1.64063,1.14843 0.35155,0.47658 0.59374,1.1172 0.72656,1.92188 l -2.0625,0.28125 c -0.0938,-0.64062 -0.3672,-1.14062 -0.82031,-1.5 -0.44532,-0.35937 -1.07813,-0.53905 -1.89844,-0.53906 -0.96875,1e-5 -1.66016,0.16016 -2.07422,0.48047 -0.41406,0.32032 -0.6211,0.69532 -0.62109,1.125 -10e-6,0.27344 0.0859,0.51954 0.25781,0.73828 0.17187,0.22657 0.4414,0.41407 0.80859,0.5625 0.21094,0.0781 0.83203,0.25782 1.86329,0.53906 1.49218,0.39844 2.53124,0.72657 3.11718,0.98437 0.59374,0.25001 1.05859,0.6172 1.39453,1.10157 0.33593,0.48438 0.5039,1.08594 0.50391,1.80468 -10e-6,0.70313 -0.20704,1.36719 -0.62109,1.99219 -0.40626,0.61719 -0.99611,1.09766 -1.76953,1.44141 -0.77345,0.33594 -1.64845,0.5039 -2.625,0.5039 -1.6172,0 -2.85157,-0.33593 -3.70313,-1.00781 -0.84375,-0.67187 -1.38281,-1.66796 -1.61719,-2.98828"
           style=""
           id="path4748" />
        <path
           d="m 668.25244,757.69061 4.98047,-17.76562 1.6875,0 -4.96875,17.76562 -1.69922,0"
           style=""
           id="path4750" />
      </g>
    </g>
    <g
       style="font-size:48px;font-style:normal;font-variant:normal;font-weight:normal;font-stretch:normal;line-height:125%;letter-spacing:0px;word-spacing:0px;fill:#000000;fill-opacity:1;stroke:none;font-family:Arial;-inkscape-font-specification:Arial"
       id="text4506">
      <path
         d="m 73.510117,376.9967 0,-34.35937 24.84375,0 0,4.05469 -20.296875,0 0,10.52343 19.007812,0 0,4.03125 -19.007812,0 0,11.69532 21.09375,0 0,4.05468 -25.640625,0"
         style=""
         id="path4530" />
      <path
         d="m 103.2523,369.56702 4.17188,-0.65625 c 0.23437,1.67188 0.88281,2.95313 1.94531,3.84375 1.07812,0.89062 2.57812,1.33594 4.5,1.33593 1.93749,1e-5 3.37499,-0.39062 4.3125,-1.17187 0.93748,-0.79687 1.40623,-1.72656 1.40625,-2.78906 -2e-5,-0.95312 -0.41408,-1.70312 -1.24219,-2.25 -0.57814,-0.37499 -2.01564,-0.85156 -4.3125,-1.42969 -3.09376,-0.78124 -5.24219,-1.45311 -6.44531,-2.01563 -1.1875,-0.57811 -2.09375,-1.36717 -2.71875,-2.36718 -0.60938,-1.01561 -0.91406,-2.1328 -0.91406,-3.35157 0,-1.10935 0.25,-2.13279 0.75,-3.07031 0.51562,-0.9531 1.21093,-1.74216 2.08594,-2.36719 0.65624,-0.48435 1.54687,-0.8906 2.67187,-1.21875 1.14062,-0.34372 2.35937,-0.5156 3.65625,-0.51562 1.95311,2e-5 3.66405,0.28127 5.13281,0.84375 1.48436,0.56252 2.57811,1.32815 3.28125,2.29687 0.70311,0.95315 1.18748,2.2344 1.45313,3.84375 l -4.125,0.5625 c -0.18752,-1.28123 -0.73439,-2.28123 -1.64063,-3 -0.89064,-0.71872 -2.15626,-1.0781 -3.79687,-1.07812 -1.93751,2e-5 -3.32032,0.32033 -4.14844,0.96094 -0.82813,0.64064 -1.24219,1.39064 -1.24219,2.25 0,0.54689 0.17187,1.03908 0.51563,1.47656 0.34374,0.45314 0.8828,0.82814 1.61719,1.125 0.42186,0.15627 1.66405,0.51564 3.72656,1.07812 2.98436,0.79689 5.06248,1.45314 6.23437,1.96875 1.18748,0.50002 2.11717,1.23439 2.78907,2.20313 0.67185,0.96876 1.00779,2.17188 1.00781,3.60937 -2e-5,1.40626 -0.41409,2.73438 -1.24219,3.98438 -0.81252,1.23438 -1.9922,2.19531 -3.53906,2.88281 -1.54689,0.67188 -3.29689,1.00781 -5.25,1.00781 -3.23438,0 -5.70313,-0.67187 -7.40625,-2.01562 -1.6875,-1.34375 -2.76563,-3.33593 -3.23438,-5.97656"
         style=""
         id="path4532" />
      <path
         d="m 144.80699,386.53577 0,-12.1875 c -0.65627,0.92187 -1.57814,1.6875 -2.76562,2.29687 -1.17189,0.60938 -2.42189,0.91406 -3.75,0.91406 -2.95314,0 -5.50001,-1.17968 -7.64063,-3.53906 -2.125,-2.35937 -3.1875,-5.59374 -3.1875,-9.70312 0,-2.49999 0.42969,-4.74217 1.28906,-6.72657 0.875,-1.98435 2.13281,-3.48435 3.77344,-4.5 1.65624,-1.03122 3.46874,-1.54685 5.4375,-1.54687 3.07811,2e-5 5.49998,1.2969 7.26563,3.89062 l 0,-3.32812 3.79687,0 0,34.42969 -4.21875,0 m -13.00781,-22.05469 c -1e-5,3.20313 0.67187,5.60938 2.01562,7.21875 1.34374,1.59375 2.95312,2.39063 4.82813,2.39062 1.79686,1e-5 3.34373,-0.7578 4.64062,-2.27343 1.29686,-1.53125 1.9453,-3.85156 1.94532,-6.96094 -2e-5,-3.31249 -0.68752,-5.80467 -2.0625,-7.47656 -1.35939,-1.67186 -2.96096,-2.50779 -4.80469,-2.50782 -1.82814,3e-5 -3.38282,0.78128 -4.66406,2.34375 -1.26564,1.5469 -1.89845,3.96877 -1.89844,7.26563"
         style=""
         id="path4534" />
      <path
         d="m 171.97105,376.9967 0,-3.65625 c -1.93751,2.8125 -4.57032,4.21875 -7.89843,4.21875 -1.46876,0 -2.84376,-0.28125 -4.125,-0.84375 -1.26563,-0.5625 -2.21095,-1.26562 -2.83594,-2.10937 -0.60938,-0.85937 -1.03907,-1.90625 -1.28906,-3.14063 -0.17188,-0.82811 -0.25782,-2.14061 -0.25782,-3.9375 l 0,-15.42187 4.21875,0 0,13.80469 c 0,2.20313 0.0859,3.6875 0.25782,4.45312 0.26561,1.10938 0.82811,1.98438 1.6875,2.625 0.85936,0.625 1.92186,0.9375 3.1875,0.9375 1.26561,0 2.45311,-0.32031 3.5625,-0.96094 1.10935,-0.65624 1.8906,-1.53905 2.34375,-2.64843 0.46873,-1.125 0.7031,-2.74999 0.70312,-4.875 l 0,-13.33594 4.21875,0 0,24.89062 -3.77344,0"
         style=""
         id="path4536" />
      <path
         d="m 199.41637,368.98108 4.35937,0.53906 c -0.68752,2.54688 -1.96096,4.52344 -3.82031,5.92969 -1.85939,1.40625 -4.23439,2.10937 -7.125,2.10937 -3.64064,0 -6.53126,-1.11718 -8.67188,-3.35156 -2.125,-2.24999 -3.1875,-5.39843 -3.1875,-9.44531 0,-4.18748 1.07813,-7.43748 3.23438,-9.75 2.15624,-2.31248 4.95311,-3.46873 8.39062,-3.46875 3.32811,2e-5 6.04686,1.13284 8.15625,3.39844 2.10936,2.26564 3.16404,5.45314 3.16407,9.5625 -3e-5,0.25001 -0.008,0.62501 -0.0234,1.125 l -18.5625,0 c 0.15624,2.73438 0.92968,4.82813 2.32031,6.28125 1.39062,1.45313 3.12499,2.17969 5.20313,2.17968 1.54686,1e-5 2.86717,-0.40624 3.96093,-1.21875 1.09374,-0.81249 1.96092,-2.10936 2.60157,-3.89062 m -13.85157,-6.82031 13.89844,0 c -0.18752,-2.09374 -0.71877,-3.66405 -1.59375,-4.71094 -1.34377,-1.62498 -3.08595,-2.43748 -5.22656,-2.4375 -1.93751,2e-5 -3.57032,0.64846 -4.89844,1.94531 -1.31251,1.2969 -2.03907,3.03127 -2.17969,5.20313"
         style=""
         id="path4538" />
      <path
         d="m 209.09605,376.9967 0,-24.89062 3.77344,0 0,3.49219 c 0.78124,-1.21873 1.82031,-2.19529 3.11719,-2.92969 1.29686,-0.74998 2.77342,-1.12498 4.42969,-1.125 1.84373,2e-5 3.35154,0.38284 4.52343,1.14844 1.18748,0.76565 2.02342,1.83596 2.50782,3.21093 1.96872,-2.90622 4.53122,-4.35935 7.6875,-4.35937 2.46871,2e-5 4.36715,0.68752 5.69531,2.0625 1.32809,1.3594 1.99215,3.46096 1.99219,6.30469 l 0,17.08593 -4.19532,0 0,-15.67968 c -3e-5,-1.68749 -0.14065,-2.89842 -0.42187,-3.63282 -0.26566,-0.74998 -0.75784,-1.35154 -1.47656,-1.80468 -0.71878,-0.45311 -1.56253,-0.67967 -2.53125,-0.67969 -1.75003,2e-5 -3.20315,0.58596 -4.35938,1.75781 -1.15627,1.15627 -1.7344,3.01564 -1.73437,5.57813 l 0,14.46093 -4.21875,0 0,-16.17187 c -2e-5,-1.87498 -0.34377,-3.28123 -1.03125,-4.21875 -0.68752,-0.93748 -1.81252,-1.40623 -3.375,-1.40625 -1.18752,2e-5 -2.28908,0.31252 -3.30469,0.9375 -1.00001,0.62502 -1.72657,1.53908 -2.17969,2.74219 -0.45313,1.20314 -0.67969,2.93751 -0.67969,5.20312 l 0,12.91406 -4.21875,0"
         style=""
         id="path4540" />
      <path
         d="m 265.46324,373.92639 c -1.56252,1.32813 -3.07033,2.26563 -4.52344,2.8125 -1.43751,0.54688 -2.98438,0.82031 -4.64062,0.82031 -2.73438,0 -4.83594,-0.66406 -6.30469,-1.99218 -1.46875,-1.34375 -2.20313,-3.05469 -2.20312,-5.13282 -1e-5,-1.21874 0.27343,-2.32811 0.82031,-3.32812 0.5625,-1.01561 1.28906,-1.82811 2.17969,-2.4375 0.90624,-0.60936 1.92186,-1.0703 3.04687,-1.38281 0.82812,-0.21874 2.07812,-0.42968 3.75,-0.63282 3.40624,-0.40623 5.91405,-0.89061 7.52344,-1.45312 0.0156,-0.57811 0.0234,-0.9453 0.0234,-1.10156 -2e-5,-1.71873 -0.39846,-2.92967 -1.19532,-3.63282 -1.07814,-0.9531 -2.6797,-1.42966 -4.80468,-1.42968 -1.98439,2e-5 -3.45314,0.35158 -4.40625,1.05468 -0.93751,0.68752 -1.63282,1.91409 -2.08594,3.67969 l -4.125,-0.5625 c 0.375,-1.7656 0.99218,-3.18748 1.85156,-4.26562 0.85937,-1.09373 2.10156,-1.92967 3.72656,-2.50782 1.62499,-0.59372 3.50781,-0.8906 5.64844,-0.89062 2.12499,2e-5 3.85155,0.25002 5.17969,0.75 1.3281,0.50002 2.30467,1.13284 2.92969,1.89844 0.62497,0.75002 1.06247,1.70314 1.3125,2.85937 0.1406,0.71877 0.21091,2.01564 0.21093,3.89063 l 0,5.625 c -2e-5,3.92188 0.0859,6.40625 0.25782,7.45312 0.18747,1.03125 0.54685,2.02344 1.07812,2.97656 l -4.40625,0 c -0.43752,-0.875 -0.71877,-1.89843 -0.84375,-3.07031 m -0.35156,-9.42187 c -1.53127,0.62501 -3.82814,1.15626 -6.89063,1.59375 -1.73438,0.25001 -2.96094,0.53126 -3.67968,0.84375 -0.71876,0.31251 -1.27345,0.77344 -1.66407,1.38281 -0.39063,0.59376 -0.58594,1.25782 -0.58593,1.99219 -1e-5,1.125 0.42186,2.0625 1.26562,2.8125 0.85937,0.75 2.10937,1.125 3.75,1.125 1.62499,0 3.0703,-0.35156 4.33594,-1.05469 1.26561,-0.71875 2.19529,-1.69531 2.78906,-2.92969 0.45311,-0.95312 0.67967,-2.35936 0.67969,-4.21875 l 0,-1.54687"
         style=""
         id="path4542" />
      <path
         d="m 289.65074,376.9967 0,-34.35937 6.84375,0 8.13281,24.32812 c 0.74998,2.26564 1.29686,3.96095 1.64063,5.08594 0.3906,-1.24999 0.99998,-3.08593 1.82812,-5.50781 l 8.22657,-23.90625 6.11718,0 0,34.35937 -4.38281,0 0,-28.75781 -9.98437,28.75781 -4.10157,0 -9.9375,-29.25 0,29.25 -4.38281,0"
         style=""
         id="path4544" />
      <path
         d="m 339.64293,376.9967 -13.3125,-34.35937 4.92187,0 8.92969,24.96094 c 0.71874,2 1.3203,3.875 1.80469,5.625 0.53123,-1.875 1.14842,-3.75 1.85156,-5.625 l 9.28125,-24.96094 4.64063,0 -13.45313,34.35937 -4.66406,0"
         style=""
         id="path4546" />
      <path
         d="m 386.40074,364.94983 4.54688,1.14844 c -0.95316,3.73438 -2.67191,6.58594 -5.15625,8.55468 -2.46878,1.95313 -5.49221,2.92969 -9.07032,2.92969 -3.70314,0 -6.71876,-0.75 -9.04687,-2.25 -2.31251,-1.51562 -4.07813,-3.70312 -5.29688,-6.5625 -1.20312,-2.85936 -1.80469,-5.92967 -1.80468,-9.21094 -10e-6,-3.5781 0.67968,-6.69528 2.03906,-9.35156 1.37499,-2.67184 3.3203,-4.69528 5.83594,-6.07031 2.53123,-1.39059 5.31248,-2.0859 8.34375,-2.08594 3.43747,4e-5 6.3281,0.87504 8.67187,2.625 2.34372,1.75003 3.97653,4.21097 4.89844,7.38281 l -4.47656,1.05469 c -0.79691,-2.49997 -1.95315,-4.32028 -3.46875,-5.46094 -1.51565,-1.14059 -3.4219,-1.7109 -5.71875,-1.71093 -2.64064,3e-5 -4.85158,0.63284 -6.63282,1.89843 -1.76563,1.26566 -3.00782,2.96878 -3.72656,5.10938 -0.71876,2.12502 -1.07813,4.32033 -1.07812,6.58594 -10e-6,2.92189 0.42186,5.47657 1.26562,7.66406 0.85937,2.17188 2.18749,3.79688 3.98438,4.875 1.79686,1.07813 3.74217,1.61719 5.83593,1.61719 2.54686,0 4.70311,-0.73437 6.46875,-2.20313 1.7656,-1.46874 2.96091,-3.64843 3.58594,-6.53906"
         style=""
         id="path4548" />
      <path
         d="m 409.88512,376.9967 0,-34.35937 12.96093,0 c 2.28124,3e-5 4.02342,0.10941 5.22657,0.32812 1.68747,0.28129 3.10153,0.82035 4.24218,1.61719 1.1406,0.78128 2.05466,1.88284 2.74219,3.30469 0.7031,1.4219 1.05466,2.9844 1.05469,4.6875 -3e-5,2.9219 -0.92972,5.39846 -2.78906,7.42969 -1.8594,2.01564 -5.21878,3.02345 -10.07813,3.02343 l -8.8125,0 0,13.96875 -4.54687,0 m 4.54687,-18.02343 8.88281,0 c 2.93748,10e-6 5.02342,-0.54686 6.25782,-1.64063 1.23435,-1.09373 1.85153,-2.63279 1.85156,-4.61719 -3e-5,-1.43747 -0.36721,-2.66403 -1.10156,-3.67968 -0.71878,-1.03122 -1.6719,-1.71091 -2.85938,-2.03907 -0.76564,-0.20309 -2.17971,-0.30465 -4.24219,-0.30468 l -8.78906,0 0,12.28125"
         style=""
         id="path4550" />
      <path
         d="m 441.40855,376.9967 0,-34.35937 4.21875,0 0,12.32812 c 1.96874,-2.28122 4.45312,-3.42185 7.45313,-3.42187 1.84373,2e-5 3.44529,0.36721 4.80469,1.10156 1.35935,0.71878 2.3281,1.71877 2.90625,3 0.59372,1.28127 0.8906,3.14064 0.89062,5.57813 l 0,15.77343 -4.21875,0 0,-15.77343 c -2e-5,-2.10936 -0.46095,-3.64061 -1.38281,-4.59375 -0.90627,-0.96873 -2.19533,-1.45311 -3.86719,-1.45313 -1.25001,2e-5 -2.4297,0.32815 -3.53906,0.98438 -1.09376,0.64064 -1.87501,1.51564 -2.34375,2.625 -0.46876,1.10939 -0.70313,2.64064 -0.70313,4.59375 l 0,13.61718 -4.21875,0"
         style=""
         id="path4552" />
      <path
         d="m 468.1273,386.53577 0,-34.42969 3.84375,0 0,3.23437 c 0.90625,-1.2656 1.92968,-2.21091 3.07032,-2.83593 1.14061,-0.6406 2.52342,-0.96092 4.14843,-0.96094 2.12499,2e-5 3.99999,0.5469 5.625,1.64062 1.62498,1.09378 2.85154,2.64065 3.67969,4.64063 0.8281,1.98439 1.24216,4.16408 1.24219,6.53906 -3e-5,2.54689 -0.46096,4.84376 -1.38281,6.89063 -0.90628,2.03125 -2.2344,3.59375 -3.98438,4.6875 -1.73439,1.07812 -3.56251,1.61718 -5.48437,1.61718 -1.40627,0 -2.67189,-0.29687 -3.79688,-0.89062 -1.10938,-0.59375 -2.02344,-1.34375 -2.74219,-2.25 l 0,12.11719 -4.21875,0 m 3.82032,-21.84375 c -10e-6,3.20313 0.64843,5.57032 1.94531,7.10156 1.29686,1.53125 2.86717,2.29688 4.71094,2.29687 1.87498,1e-5 3.47654,-0.78905 4.80468,-2.36718 1.34373,-1.59375 2.01561,-4.05468 2.01563,-7.38282 -2e-5,-3.17186 -0.65627,-5.54685 -1.96875,-7.125 -1.29689,-1.5781 -2.85158,-2.36716 -4.66406,-2.36718 -1.79689,2e-5 -3.39064,0.84377 -4.78125,2.53125 -1.37501,1.67189 -2.06251,4.10939 -2.0625,7.3125"
         style=""
         id="path4554" />
    </g>
  </g>
</svg>
