<?xml version="1.0" encoding="UTF-8" standalone="no"?>
<!-- Created with Inkscape (http://www.inkscape.org/) -->

<svg
   xmlns:dc="http://purl.org/dc/elements/1.1/"
   xmlns:cc="http://creativecommons.org/ns#"
   xmlns:rdf="http://www.w3.org/1999/02/22-rdf-syntax-ns#"
   xmlns:svg="http://www.w3.org/2000/svg"
   xmlns="http://www.w3.org/2000/svg"
   xmlns:sodipodi="http://sodipodi.sourceforge.net/DTD/sodipodi-0.dtd"
   xmlns:inkscape="http://www.inkscape.org/namespaces/inkscape"
   width="64"
   height="64"
   id="svg4004"
   version="1.1"
   inkscape:version="0.48.2 r9819"
   sodipodi:docname="carretilla.svg">
  <defs
     id="defs4006">
    <filter
       inkscape:collect="always"
       id="filter4569">
      <feGaussianBlur
         inkscape:collect="always"
         stdDeviation="0.59676832"
         id="feGaussianBlur4571" />
    </filter>
  </defs>
  <sodipodi:namedview
     id="base"
     pagecolor="#ffffff"
     bordercolor="#666666"
     borderopacity="1.0"
     inkscape:pageopacity="0.0"
     inkscape:pageshadow="2"
     inkscape:zoom="4.953125"
     inkscape:cx="-5.6529968"
     inkscape:cy="32"
     inkscape:document-units="px"
     inkscape:current-layer="layer1"
     showgrid="false" />
  <metadata
     id="metadata4009">
    <rdf:RDF>
      <cc:Work
         rdf:about="">
        <dc:format>image/svg+xml</dc:format>
        <dc:type
           rdf:resource="http://purl.org/dc/dcmitype/StillImage" />
        <dc:title />
      </cc:Work>
    </rdf:RDF>
  </metadata>
  <g
     inkscape:label="Capa 1"
     inkscape:groupmode="layer"
     id="layer1"
     transform="translate(0,-988.36218)">
    <path
       transform="matrix(0.86316352,0,0,0.86316352,2.8048884,996.78489)"
       d="m 19.078865,42.952682 a 2.5741324,2.473186 0 1 1 -5.148265,0 2.5741324,2.473186 0 1 1 5.148265,0 z"
       sodipodi:ry="2.473186"
       sodipodi:rx="2.5741324"
       sodipodi:cy="42.952682"
       sodipodi:cx="16.504732"
       id="path4545"
       style="fill:none;stroke:#666666;stroke-width:5.79264498000000039;stroke-linecap:round;stroke-linejoin:round;stroke-miterlimit:4;stroke-opacity:1;stroke-dasharray:none;stroke-dashoffset:0;filter:url(#filter4569)"
       sodipodi:type="arc" />
    <path
       sodipodi:type="arc"
       style="fill:none;stroke:#666666;stroke-width:5.79264498000000039;stroke-linecap:round;stroke-linejoin:round;stroke-miterlimit:4;stroke-opacity:1;stroke-dasharray:none;stroke-dashoffset:0;filter:url(#filter4569)"
       id="path4547"
       sodipodi:cx="16.504732"
       sodipodi:cy="42.952682"
       sodipodi:rx="2.5741324"
       sodipodi:ry="2.473186"
       d="m 19.078865,42.952682 a 2.5741324,2.473186 0 1 1 -5.148265,0 2.5741324,2.473186 0 1 1 5.148265,0 z"
       transform="matrix(0.86316352,0,0,0.86316352,23.194415,996.78489)" />
    <path
       sodipodi:nodetypes="cccccc"
       transform="matrix(1.3589166,0,0,1.3589166,-8.2959505,982.7017)"
       inkscape:connector-curvature="0"
       id="path4543"
       d="m 48.656152,16.353313 -5.350158,0.05047 -6.056782,18.927444 -20.794953,0 -5.804416,-14.182965 1.463721,-0.05047"
       style="fill:none;stroke:#666666;stroke-width:3.67940164000000003;stroke-linecap:round;stroke-linejoin:round;stroke-miterlimit:4;stroke-opacity:1;stroke-dasharray:none;filter:url(#filter4569)" />
    <g
       id="g4536"
       transform="matrix(1.3589166,0,0,1.3589166,-8.2959505,-360.40007)"
       style="stroke-width:2.207641;stroke-miterlimit:4;stroke-dasharray:none">
      <path
         sodipodi:nodetypes="cccccc"
         transform="translate(0,988.36218)"
         inkscape:connector-curvature="0"
         id="path4012"
         d="m 48.656152,16.353313 -5.350158,0.05047 -6.056782,18.927444 -20.794953,0 -5.804416,-14.182965 1.463721,-0.05047"
         style="fill:none;stroke:#000000;stroke-width:2.207641;stroke-linecap:round;stroke-linejoin:round;stroke-opacity:1;stroke-miterlimit:4;stroke-dasharray:none" />
      <path
         transform="matrix(0.63518506,0,0,0.63518506,8.168889,998.72572)"
         d="m 19.078865,42.952682 c 0,1.365903 -1.152479,2.473187 -2.574133,2.473187 -1.421654,0 -2.574132,-1.107284 -2.574132,-2.473187 0,-1.365902 1.152478,-2.473186 2.574132,-2.473186 1.421654,0 2.574133,1.107284 2.574133,2.473186 z"
         sodipodi:ry="2.473186"
         sodipodi:rx="2.5741324"
         sodipodi:cy="42.952682"
         sodipodi:cx="16.504732"
         id="path4532"
         style="fill:none;stroke:#333333;stroke-width:3.4755871;stroke-linecap:round;stroke-linejoin:round;stroke-miterlimit:4;stroke-opacity:1;stroke-dasharray:none;stroke-dashoffset:0"
         sodipodi:type="arc" />
      <path
         sodipodi:type="arc"
         style="fill:none;stroke:#333333;stroke-width:3.4755871;stroke-linecap:round;stroke-linejoin:round;stroke-miterlimit:4;stroke-opacity:1;stroke-dasharray:none;stroke-dashoffset:0"
         id="path4534"
         sodipodi:cx="16.504732"
         sodipodi:cy="42.952682"
         sodipodi:rx="2.5741324"
         sodipodi:ry="2.473186"
         d="m 19.078865,42.952682 c 0,1.365903 -1.152479,2.473187 -2.574133,2.473187 -1.421654,0 -2.574132,-1.107284 -2.574132,-2.473187 0,-1.365902 1.152478,-2.473186 2.574132,-2.473186 1.421654,0 2.574133,1.107284 2.574133,2.473186 z"
         transform="matrix(0.63518506,0,0,0.63518506,23.173141,998.72572)" />
    </g>
  </g>
</svg>
