<?xml version="1.0" encoding="UTF-8" standalone="no"?>
<!-- Created with Inkscape (http://www.inkscape.org/) -->

<svg
   xmlns:dc="http://purl.org/dc/elements/1.1/"
   xmlns:cc="http://creativecommons.org/ns#"
   xmlns:rdf="http://www.w3.org/1999/02/22-rdf-syntax-ns#"
   xmlns:svg="http://www.w3.org/2000/svg"
   xmlns="http://www.w3.org/2000/svg"
   xmlns:sodipodi="http://sodipodi.sourceforge.net/DTD/sodipodi-0.dtd"
   xmlns:inkscape="http://www.inkscape.org/namespaces/inkscape"
   width="64"
   height="64"
   id="svg4004"
   version="1.1"
   inkscape:version="0.48.2 r9819"
   sodipodi:docname="carretillaflag.svg">
  <defs
     id="defs4006">
    <filter
       inkscape:collect="always"
       id="filter4569">
      <feGaussianBlur
         inkscape:collect="always"
         stdDeviation="0.59676832"
         id="feGaussianBlur4571" />
    </filter>
  </defs>
  <sodipodi:namedview
     id="base"
     pagecolor="#ffffff"
     bordercolor="#666666"
     borderopacity="1.0"
     inkscape:pageopacity="0.0"
     inkscape:pageshadow="2"
     inkscape:zoom="4.953125"
     inkscape:cx="45.526814"
     inkscape:cy="32"
     inkscape:document-units="px"
     inkscape:current-layer="g4536"
     showgrid="false" />
  <metadata
     id="metadata4009">
    <rdf:RDF>
      <cc:Work
         rdf:about="">
        <dc:format>image/svg+xml</dc:format>
        <dc:type
           rdf:resource="http://purl.org/dc/dcmitype/StillImage" />
        <dc:title />
      </cc:Work>
    </rdf:RDF>
  </metadata>
  <g
     inkscape:label="Capa 1"
     inkscape:groupmode="layer"
     id="layer1"
     transform="translate(0,-988.36218)">
    <path
       transform="matrix(0.8837566,0,0,1.2448432,2.4314796,985.74583)"
       d="m 19.078865,42.952682 a 2.5741324,2.473186 0 1 1 -5.148265,0 2.5741324,2.473186 0 1 1 5.148265,0 z"
       sodipodi:ry="2.473186"
       sodipodi:rx="2.5741324"
       sodipodi:cy="42.952682"
       sodipodi:cx="16.504732"
       id="path4545"
       style="fill:none;stroke:#666666;stroke-width:5.79264498;stroke-linecap:round;stroke-linejoin:round;stroke-miterlimit:4;stroke-opacity:1;stroke-dasharray:none;stroke-dashoffset:0;filter:url(#filter4569)"
       sodipodi:type="arc" />
    <path
       sodipodi:type="arc"
       style="fill:none;stroke:#666666;stroke-width:5.79264498;stroke-linecap:round;stroke-linejoin:round;stroke-miterlimit:4;stroke-opacity:1;stroke-dasharray:none;stroke-dashoffset:0;filter:url(#filter4569)"
       id="path4547"
       sodipodi:cx="16.504732"
       sodipodi:cy="42.952682"
       sodipodi:rx="2.5741324"
       sodipodi:ry="2.473186"
       d="m 19.078865,42.952682 a 2.5741324,2.473186 0 1 1 -5.148265,0 2.5741324,2.473186 0 1 1 5.148265,0 z"
       transform="matrix(0.8837566,0,0,1.2448432,23.307453,985.74583)" />
    <path
       sodipodi:nodetypes="cccccc"
       transform="matrix(1.3913372,0,0,1.9598119,-8.9341994,965.4353)"
       inkscape:connector-curvature="0"
       id="path4543"
       d="m 48.656152,16.353313 -5.350158,0.05047 -6.056782,18.927444 -20.794953,0 -5.804416,-14.182965 1.463721,-0.05047"
       style="fill:none;stroke:#666666;stroke-width:3.67940164;stroke-linecap:round;stroke-linejoin:round;stroke-miterlimit:4;stroke-opacity:1;stroke-dasharray:none;filter:url(#filter4569)" />
    <g
       id="g4536"
       transform="matrix(1.3589166,0,0,1.3589166,-8.2959505,-360.40007)"
       style="stroke-width:2.207641;stroke-miterlimit:4;stroke-dasharray:none">
      <path
         sodipodi:nodetypes="cccccc"
         inkscape:connector-curvature="0"
         id="path4012"
         d="m 49.347299,999.24074 -5.477801,0.073 -6.201281,27.29676 -21.291074,0 -5.942894,-20.4544 1.498641,-0.073"
         style="fill:none;stroke:#9e3b33;stroke-width:2.68261886;stroke-linecap:round;stroke-linejoin:round;stroke-miterlimit:4;stroke-opacity:1;stroke-dasharray:none" />
      <path
         transform="matrix(0.6503391,0,0,0.91605561,7.8941047,990.60228)"
         d="m 19.078865,42.952682 a 2.5741324,2.473186 0 1 1 -5.148265,0 2.5741324,2.473186 0 1 1 5.148265,0 z"
         sodipodi:ry="2.473186"
         sodipodi:rx="2.5741324"
         sodipodi:cy="42.952682"
         sodipodi:cx="16.504732"
         id="path4532"
         style="fill:none;stroke:#9e3b33;stroke-width:3.47558713;stroke-linecap:round;stroke-linejoin:round;stroke-miterlimit:4;stroke-opacity:1;stroke-dasharray:none;stroke-dashoffset:0"
         sodipodi:type="arc" />
      <path
         sodipodi:type="arc"
         style="fill:none;stroke:#9e3b33;stroke-width:3.47558713;stroke-linecap:round;stroke-linejoin:round;stroke-miterlimit:4;stroke-opacity:1;stroke-dasharray:none;stroke-dashoffset:0"
         id="path4534"
         sodipodi:cx="16.504732"
         sodipodi:cy="42.952682"
         sodipodi:rx="2.5741324"
         sodipodi:ry="2.473186"
         d="m 19.078865,42.952682 a 2.5741324,2.473186 0 1 1 -5.148265,0 2.5741324,2.473186 0 1 1 5.148265,0 z"
         transform="matrix(0.6503391,0,0,0.91605561,23.256322,990.60228)" />
    </g>
  </g>
</svg>
