<?xml version="1.0" encoding="UTF-8" standalone="no"?>
<!-- Created with Inkscape (http://www.inkscape.org/) -->

<svg
   xmlns:dc="http://purl.org/dc/elements/1.1/"
   xmlns:cc="http://creativecommons.org/ns#"
   xmlns:rdf="http://www.w3.org/1999/02/22-rdf-syntax-ns#"
   xmlns:svg="http://www.w3.org/2000/svg"
   xmlns="http://www.w3.org/2000/svg"
   xmlns:sodipodi="http://sodipodi.sourceforge.net/DTD/sodipodi-0.dtd"
   xmlns:inkscape="http://www.inkscape.org/namespaces/inkscape"
   width="64"
   height="64"
   id="svg4004"
   version="1.1"
   inkscape:version="0.48.2 r9819"
   sodipodi:docname="delete.svg">
  <defs
     id="defs4006" />
  <sodipodi:namedview
     id="base"
     pagecolor="#ffffff"
     bordercolor="#666666"
     borderopacity="1.0"
     inkscape:pageopacity="0.0"
     inkscape:pageshadow="2"
     inkscape:zoom="4.953125"
     inkscape:cx="-3.1293375"
     inkscape:cy="32"
     inkscape:document-units="px"
     inkscape:current-layer="layer1"
     showgrid="false" />
  <metadata
     id="metadata4009">
    <rdf:RDF>
      <cc:Work
         rdf:about="">
        <dc:format>image/svg+xml</dc:format>
        <dc:type
           rdf:resource="http://purl.org/dc/dcmitype/StillImage" />
        <dc:title></dc:title>
      </cc:Work>
    </rdf:RDF>
  </metadata>
  <g
     inkscape:label="Capa 1"
     inkscape:groupmode="layer"
     id="layer1"
     transform="translate(0,-988.36218)">
    <text
       xml:space="preserve"
       style="font-size:74.23034668px;font-style:normal;font-variant:normal;font-weight:normal;font-stretch:normal;line-height:125%;letter-spacing:0px;word-spacing:0px;fill:#000000;fill-opacity:1;stroke:none;font-family:Arial;-inkscape-font-specification:Arial"
       x="3.846199"
       y="1156.5604"
       id="text4261"
       sodipodi:linespacing="125%"
       transform="scale(1.1066568,0.90362253)"><tspan
         sodipodi:role="line"
         id="tspan4263"
         x="3.846199"
         y="1156.5604"
         style="font-style:normal;font-variant:normal;font-weight:normal;font-stretch:normal;font-family:Arial Unicode MS;-inkscape-font-specification:Arial Unicode MS" /></text>
    <path
       style="fill:#d35f5f;fill-opacity:1;stroke:none"
       d="m 51.195206,990.89109 c -0.511717,-0.51171 -1.335636,-0.51171 -1.847353,0 L 32,1008.2387 14.652147,990.89109 c -0.511717,-0.51171 -1.335636,-0.51171 -1.847353,0 L 2.5288599,1001.1673 c -0.5117179,0.5115 -0.5117179,1.3354 0,1.8468 l 17.3478521,17.3481 -17.3478521,17.348 c -0.5117179,0.5115 -0.5117179,1.3354 0,1.8468 l 10.2759341,10.276 c 0.511717,0.5121 1.335636,0.5121 1.847353,0 L 32,1032.4857 49.347853,1049.833 c 0.511717,0.5121 1.335636,0.5121 1.847353,0 l 10.275935,-10.276 c 0.511717,-0.5114 0.511717,-1.3353 0,-1.8468 l -17.347853,-17.348 17.347853,-17.3481 c 0.511717,-0.5114 0.511717,-1.3353 0,-1.8468 L 51.195206,990.89109 z"
       id="rect4265"
       inkscape:connector-curvature="0" />
  </g>
</svg>
