<?xml version="1.0" encoding="UTF-8" standalone="no"?>
<!-- Created with Inkscape (http://www.inkscape.org/) -->

<svg
   xmlns:dc="http://purl.org/dc/elements/1.1/"
   xmlns:cc="http://creativecommons.org/ns#"
   xmlns:rdf="http://www.w3.org/1999/02/22-rdf-syntax-ns#"
   xmlns:svg="http://www.w3.org/2000/svg"
   xmlns="http://www.w3.org/2000/svg"
   xmlns:sodipodi="http://sodipodi.sourceforge.net/DTD/sodipodi-0.dtd"
   xmlns:inkscape="http://www.inkscape.org/namespaces/inkscape"
   width="120"
   height="120"
   id="svg2"
   version="1.1"
   inkscape:version="0.48.2 r9819"
   sodipodi:docname="logo.svg">
  <defs
     id="defs4">
    <filter
       inkscape:collect="always"
       id="filter3791">
      <feGaussianBlur
         inkscape:collect="always"
         stdDeviation="0.77014588"
         id="feGaussianBlur3793" />
    </filter>
    <filter
       inkscape:collect="always"
       id="filter3799">
      <feGaussianBlur
         inkscape:collect="always"
         stdDeviation="0.38507294"
         id="feGaussianBlur3801" />
    </filter>
  </defs>
  <sodipodi:namedview
     id="base"
     pagecolor="#ffffff"
     bordercolor="#666666"
     borderopacity="1.0"
     inkscape:pageopacity="0.0"
     inkscape:pageshadow="2"
     inkscape:zoom="12.592734"
     inkscape:cx="37.620726"
     inkscape:cy="80.985441"
     inkscape:document-units="px"
     inkscape:current-layer="layer1"
     showgrid="false" />
  <metadata
     id="metadata7">
    <rdf:RDF>
      <cc:Work
         rdf:about="">
        <dc:format>image/svg+xml</dc:format>
        <dc:type
           rdf:resource="http://purl.org/dc/dcmitype/StillImage" />
        <dc:title />
      </cc:Work>
    </rdf:RDF>
  </metadata>
  <g
     inkscape:label="Capa 1"
     inkscape:groupmode="layer"
     id="layer1"
     transform="translate(0,-932.36218)">
    <g
       transform="matrix(0.98976533,0,0,1.0103405,-5.560502,6.68e-5)"
       style="font-size:95.29113007000000835px;font-style:normal;font-variant:normal;font-weight:normal;font-stretch:normal;line-height:125%;letter-spacing:0px;word-spacing:0px;fill:#000000;fill-opacity:1;stroke:none;font-family:Arial;-inkscape-font-specification:Arial;"
       id="text2985">
      <path
         d="m 24.21202,994.39618 8.514784,-0.74446 c 0.403237,3.41214 1.333813,6.21937 2.791732,8.42168 1.488907,2.1714 3.784329,3.9395 6.886273,5.3043 3.1019,1.3339 6.591561,2.0008 10.468997,2.0008 3.4431,0 6.482983,-0.5118 9.119658,-1.5355 2.636592,-1.0236 4.590803,-2.4195 5.862638,-4.1876 1.30276,-1.7991 1.954163,-3.75329 1.954213,-5.86261 -5e-5,-2.14031 -0.620434,-4.00146 -1.861155,-5.58347 -1.240817,-1.61297 -3.288085,-2.96231 -6.141811,-4.04801 -1.830176,-0.71341 -5.878184,-1.81459 -12.144036,-3.30355 -6.265911,-1.51991 -10.65513,-2.94679 -13.16767,-4.28065 -3.257035,-1.70603 -5.692043,-3.81533 -7.305033,-6.32793 -1.58199,-2.54353 -2.37298,-5.38179 -2.372973,-8.51478 -7e-6,-3.44309 0.977099,-6.65358 2.931319,-9.63148 1.954201,-3.00881 4.807969,-5.28872 8.561313,-6.83975 3.753306,-1.55089 7.925391,-2.32637 12.516266,-2.32644 5.056102,7e-5 9.507359,0.82208 13.353786,2.46603 3.877358,1.61307 6.855203,4.00155 8.933544,7.16545 2.078234,3.16402 3.194926,6.74674 3.350079,10.74817 l -8.654371,0.6514 c -0.465336,-4.31162 -2.047316,-7.56864 -4.745945,-9.77106 -2.667695,-2.20231 -6.622645,-3.30349 -11.864862,-3.30355 -5.459413,6e-5 -9.445383,1.00818 -11.95792,3.02437 -2.481557,1.98529 -3.722325,4.38928 -3.72231,7.21198 -1.5e-5,2.45057 0.884032,4.46682 2.652146,6.04875 1.737058,1.58203 6.265864,3.21054 13.586431,4.88553 7.351522,1.64406 12.392145,3.08646 15.121883,4.32719 3.970413,1.83017 6.901729,4.15661 8.793957,6.97933 1.892116,2.79176 2.838202,6.01776 2.838261,9.67801 -5.9e-5,3.62927 -1.039202,7.05687 -3.117434,10.28287 -2.078343,3.195 -5.071698,5.692 -8.980073,7.4912 -3.877448,1.7681 -8.251158,2.6521 -13.121142,2.6521 -6.172857,0 -11.353066,-0.8996 -15.540643,-2.6987 -4.156593,-1.7991 -7.42912,-4.4978 -9.817592,-8.096 -2.357468,-3.6292 -3.598237,-7.72377 -3.72231,-12.28362"
         style=""
         id="path3415" />
    </g>
    <g
       transform="matrix(0,-1,1,0,-5.560502,6.68e-5)"
       style="font-size:40px;font-style:normal;font-variant:normal;font-weight:normal;font-stretch:normal;line-height:125%;letter-spacing:0px;word-spacing:0px;fill:#000000;fill-opacity:1;stroke:none;font-family:Arial;-inkscape-font-specification:Arial;"
       id="text2989">
      <path
         d="m -1015.3046,96.566229 -4.28,-12.24 c -0.36,-0.999999 -1,-1.32 -2.12,-1.32 l -3.2,0 c -0.84,0 -1.28,0.480001 -1.28,1.32 0,1.039999 0.52,1.32 1.88,1.32 0.12,0 0.2,0 0.32,0 l -0.56,17.760001 c -0.24,0 -0.44,0 -0.64,0 -1.4,0 -1.92,0.28 -1.92,1.36 0,0.92 0.44,1.4 1.36,1.4 l 5.48,0 c 1.36,0 1.96,-0.2 1.96,-1.4 0,-1.04 -0.64,-1.4 -2.08,-1.4 -0.88,0 -1.32,0.04 -1.32,0.04 l 0.36,-16.800001 3.92,11.24 c 0.36,1.079999 0.88,1.44 1.96,1.44 1.12,0 1.64,-0.360001 2,-1.44 l 3.84,-11.24 0.44,16.800001 c -0.28,0 -0.56,0 -0.84,0 -1.64,0 -2.36,0.24 -2.36,1.36 0,1.2 0.6,1.4 1.96,1.4 l 5.48,0 c 0.92,0 1.36,-0.48 1.36,-1.4 0,-1.08 -0.52,-1.36 -1.92,-1.36 -0.2,0 -0.4,0 -0.64,0 l -0.56,-17.760001 c 0.12,0 0.2,0 0.32,0 1.36,0 1.88,-0.280001 1.88,-1.32 0,-0.839999 -0.44,-1.32 -1.28,-1.32 l -3.24,0 c -1.12,0 -1.76,0.320001 -2.12,1.32 l -4.16,12.24"
         style="font-family:Courier 10 Pitch;-inkscape-font-specification:Courier 10 Pitch"
         id="path3408" />
      <path
         d="m -1000.9621,85.806229 7.19996,18.400001 c 0.52,1.36 0.8,2.2 2.12,2.2 l 1.08,0 c 0.96,0 1.36,-0.8 1.88,-2.2 l 7.04,-18.400001 c 0.08,0 0.16,0 0.24,0 1.32,0 1.84,-0.360001 1.84,-1.4 0,-0.919999 -0.48,-1.4 -1.36,-1.4 l -6.12,0 c -1.36,0 -1.96,0.200001 -1.96,1.4 0,0.959999 0.56,1.4 1.8,1.4 l 2.6,0 -6.48,17.040001 -6.64,-17.040001 2.16,0 c 1.24,0 1.8,-0.440001 1.8,-1.4 0,-1.199999 -0.6,-1.4 -1.96,-1.4 l -5.91996,0 c -0.88,0 -1.36,0.480001 -1.36,1.4 0,1.119999 0.56,1.4 2.04,1.4"
         style="font-family:Courier 10 Pitch;-inkscape-font-specification:Courier 10 Pitch"
         id="path3410" />
      <path
         d="m -961.05964,83.646229 c -1.88,-0.799999 -3.64001,-1.24 -5.44,-1.24 -6.48,0 -11.2,5.240007 -11.2,12.2 0,7.159991 4.8,12.120001 11.12,12.120001 2.51999,0 4.6,-0.68 6.76,-2.08 1.44,-0.92 2.2,-1.56 2.2,-2.44 0,-0.8 -0.6,-1.4 -1.44,-1.4 -0.68,0 -1.48,0.88 -2.76,1.6 -1.52,0.84 -3.16,1.28 -4.6,1.28 -4.36,0 -7.72,-3.40001 -7.72,-9.080001 0,-6.159994 3.12,-9.56 7.64,-9.56 2.59999,0 4.6,1.440002 5.08,3.28 0.44,1.759998 0.24,2.72 1.92,2.72 1.16,0 1.4,-0.520001 1.4,-1.56 0,-0.279999 -0.08,-1.840003 -0.08,-4.84 0,-1.359998 -0.08,-1.96 -1.44,-1.96 -0.76,0 -1.16,0.280001 -1.44,0.96"
         style="font-family:Courier 10 Pitch;-inkscape-font-specification:Courier 10 Pitch"
         id="path3412" />
    </g>
    <g
       transform="matrix(0.98976533,0,0,1.0103405,-4.2057705,0.8708469)"
       style="font-size:95.29113007000000835px;font-style:normal;font-variant:normal;font-weight:normal;font-stretch:normal;line-height:125%;letter-spacing:0px;word-spacing:0px;fill:#5fbcd3;fill-opacity:1;stroke:none;font-family:Arial;-inkscape-font-specification:Arial;"
       id="text3001">
      <path
         d="m 24.21202,994.39618 8.514784,-0.74446 c 0.403237,3.41214 1.333813,6.21937 2.791732,8.42168 1.488907,2.1714 3.784329,3.9395 6.886273,5.3043 3.1019,1.3339 6.591561,2.0008 10.468997,2.0008 3.4431,0 6.482983,-0.5118 9.119658,-1.5355 2.636592,-1.0236 4.590803,-2.4195 5.862638,-4.1876 1.30276,-1.7991 1.954163,-3.75329 1.954213,-5.86261 -5e-5,-2.14031 -0.620434,-4.00146 -1.861155,-5.58347 -1.240817,-1.61297 -3.288085,-2.96231 -6.141811,-4.04801 -1.830176,-0.71341 -5.878184,-1.81459 -12.144036,-3.30355 -6.265911,-1.51991 -10.65513,-2.94679 -13.16767,-4.28065 -3.257035,-1.70603 -5.692043,-3.81533 -7.305033,-6.32793 -1.58199,-2.54353 -2.37298,-5.38179 -2.372973,-8.51478 -7e-6,-3.44309 0.977099,-6.65358 2.931319,-9.63148 1.954201,-3.00881 4.807969,-5.28872 8.561313,-6.83975 3.753306,-1.55089 7.925391,-2.32637 12.516266,-2.32644 5.056102,7e-5 9.507359,0.82208 13.353786,2.46603 3.877358,1.61307 6.855203,4.00155 8.933544,7.16545 2.078234,3.16402 3.194926,6.74674 3.350079,10.74817 l -8.654371,0.6514 c -0.465336,-4.31162 -2.047316,-7.56864 -4.745945,-9.77106 -2.667695,-2.20231 -6.622645,-3.30349 -11.864862,-3.30355 -5.459413,6e-5 -9.445383,1.00818 -11.95792,3.02437 -2.481557,1.98529 -3.722325,4.38928 -3.72231,7.21198 -1.5e-5,2.45057 0.884032,4.46682 2.652146,6.04875 1.737058,1.58203 6.265864,3.21054 13.586431,4.88553 7.351522,1.64406 12.392145,3.08646 15.121883,4.32719 3.970413,1.83017 6.901729,4.15661 8.793957,6.97933 1.892116,2.79176 2.838202,6.01776 2.838261,9.67801 -5.9e-5,3.62927 -1.039202,7.05687 -3.117434,10.28287 -2.078343,3.195 -5.071698,5.692 -8.980073,7.4912 -3.877448,1.7681 -8.251158,2.6521 -13.121142,2.6521 -6.172857,0 -11.353066,-0.8996 -15.540643,-2.6987 -4.156593,-1.7991 -7.42912,-4.4978 -9.817592,-8.096 -2.357468,-3.6292 -3.598237,-7.72377 -3.72231,-12.28362"
         style=""
         id="path3425" />
    </g>
    <g
       transform="matrix(0,-1,1,0,-4.2057705,0.8708469)"
       style="font-size:40px;font-style:normal;font-variant:normal;font-weight:normal;font-stretch:normal;line-height:125%;letter-spacing:0px;word-spacing:0px;fill:#5fbcd3;fill-opacity:1;stroke:none;filter:url(#filter3799);font-family:Arial;-inkscape-font-specification:Arial"
       id="text3005">
      <path
         d="m -1015.3046,96.566229 -4.28,-12.24 c -0.36,-0.999999 -1,-1.32 -2.12,-1.32 l -3.2,0 c -0.84,0 -1.28,0.480001 -1.28,1.32 0,1.039999 0.52,1.32 1.88,1.32 0.12,0 0.2,0 0.32,0 l -0.56,17.760001 c -0.24,0 -0.44,0 -0.64,0 -1.4,0 -1.92,0.28 -1.92,1.36 0,0.92 0.44,1.4 1.36,1.4 l 5.48,0 c 1.36,0 1.96,-0.2 1.96,-1.4 0,-1.04 -0.64,-1.4 -2.08,-1.4 -0.88,0 -1.32,0.04 -1.32,0.04 l 0.36,-16.800001 3.92,11.24 c 0.36,1.079999 0.88,1.44 1.96,1.44 1.12,0 1.64,-0.360001 2,-1.44 l 3.84,-11.24 0.44,16.800001 c -0.28,0 -0.56,0 -0.84,0 -1.64,0 -2.36,0.24 -2.36,1.36 0,1.2 0.6,1.4 1.96,1.4 l 5.48,0 c 0.92,0 1.36,-0.48 1.36,-1.4 0,-1.08 -0.52,-1.36 -1.92,-1.36 -0.2,0 -0.4,0 -0.64,0 l -0.56,-17.760001 c 0.12,0 0.2,0 0.32,0 1.36,0 1.88,-0.280001 1.88,-1.32 0,-0.839999 -0.44,-1.32 -1.28,-1.32 l -3.24,0 c -1.12,0 -1.76,0.320001 -2.12,1.32 l -4.16,12.24"
         style="fill:#5fbcd3;font-family:Courier 10 Pitch;-inkscape-font-specification:Courier 10 Pitch"
         id="path3418" />
      <path
         d="m -1000.9621,85.806229 7.19996,18.400001 c 0.52,1.36 0.8,2.2 2.12,2.2 l 1.08,0 c 0.96,0 1.36,-0.8 1.88,-2.2 l 7.04,-18.400001 c 0.08,0 0.16,0 0.24,0 1.32,0 1.84,-0.360001 1.84,-1.4 0,-0.919999 -0.48,-1.4 -1.36,-1.4 l -6.12,0 c -1.36,0 -1.96,0.200001 -1.96,1.4 0,0.959999 0.56,1.4 1.8,1.4 l 2.6,0 -6.48,17.040001 -6.64,-17.040001 2.16,0 c 1.24,0 1.8,-0.440001 1.8,-1.4 0,-1.199999 -0.6,-1.4 -1.96,-1.4 l -5.91996,0 c -0.88,0 -1.36,0.480001 -1.36,1.4 0,1.119999 0.56,1.4 2.04,1.4"
         style="fill:#5fbcd3;font-family:Courier 10 Pitch;-inkscape-font-specification:Courier 10 Pitch"
         id="path3420" />
      <path
         d="m -961.05964,83.646229 c -1.88,-0.799999 -3.64001,-1.24 -5.44,-1.24 -6.48,0 -11.2,5.240007 -11.2,12.2 0,7.159991 4.8,12.120001 11.12,12.120001 2.51999,0 4.6,-0.68 6.76,-2.08 1.44,-0.92 2.2,-1.56 2.2,-2.44 0,-0.8 -0.6,-1.4 -1.44,-1.4 -0.68,0 -1.48,0.88 -2.76,1.6 -1.52,0.84 -3.16,1.28 -4.6,1.28 -4.36,0 -7.72,-3.40001 -7.72,-9.080001 0,-6.159994 3.12,-9.56 7.64,-9.56 2.59999,0 4.6,1.440002 5.08,3.28 0.44,1.759998 0.24,2.72 1.92,2.72 1.16,0 1.4,-0.520001 1.4,-1.56 0,-0.279999 -0.08,-1.840003 -0.08,-4.84 0,-1.359998 -0.08,-1.96 -1.44,-1.96 -0.76,0 -1.16,0.280001 -1.44,0.96"
         style="fill:#5fbcd3;font-family:Courier 10 Pitch;-inkscape-font-specification:Courier 10 Pitch"
         id="path3422" />
    </g>
    <g
       transform="scale(0.98976533,1.0103405)"
       style="font-size:95.29113007px;font-style:normal;font-variant:normal;font-weight:normal;font-stretch:normal;line-height:125%;letter-spacing:0px;word-spacing:0px;fill:#0088aa;fill-opacity:1;stroke:none;font-family:Arial;-inkscape-font-specification:Arial"
       id="text3011">
      <path
         d="m 20.679559,995.09839 8.514784,-0.74446 c 0.403237,3.41213 1.333813,6.21937 2.791732,8.42177 1.488907,2.1713 3.784329,3.9394 6.886273,5.3042 3.101899,1.3339 6.591561,2.0008 10.468996,2.0008 3.4431,0 6.482984,-0.5118 9.119659,-1.5355 2.636592,-1.0236 4.590802,-2.4195 5.862638,-4.1876 1.302759,-1.7991 1.954163,-3.7533 1.954213,-5.8626 -5e-5,-2.14031 -0.620434,-4.00146 -1.861155,-5.58347 -1.240817,-1.61297 -3.288085,-2.96231 -6.141811,-4.04801 -1.830176,-0.71341 -5.878184,-1.81459 -12.144036,-3.30355 -6.265911,-1.51991 -10.655131,-2.94679 -13.167671,-4.28066 -3.257034,-1.70602 -5.692043,-3.81532 -7.305033,-6.32792 -1.581989,-2.54354 -2.372979,-5.38179 -2.372972,-8.51479 -7e-6,-3.44308 0.977098,-6.65357 2.931319,-9.63147 1.954201,-3.00881 4.807969,-5.28872 8.561312,-6.83975 3.753307,-1.55089 7.925392,-2.32637 12.516267,-2.32644 5.056101,7e-5 9.507359,0.82208 13.353786,2.46603 3.877358,1.61307 6.855203,4.00155 8.933544,7.16545 2.078234,3.16402 3.194926,6.74674 3.350078,10.74817 l -8.65437,0.6514 c -0.465336,-4.31162 -2.047316,-7.56864 -4.745945,-9.77106 -2.667695,-2.20231 -6.622646,-3.30349 -11.864862,-3.30355 -5.459414,6e-5 -9.445383,1.00818 -11.95792,3.02437 -2.481557,1.98529 -3.722326,4.38928 -3.72231,7.21198 -1.6e-5,2.45057 0.884032,4.46682 2.652146,6.04875 1.737058,1.58203 6.265863,3.21054 13.58643,4.88553 7.351523,1.64406 12.392146,3.08646 15.121884,4.32719 3.970413,1.83017 6.901729,4.15661 8.793957,6.97933 1.892116,2.79176 2.838202,6.01776 2.838261,9.67801 -5.9e-5,3.62926 -1.039202,7.05686 -3.117435,10.28286 -2.078343,3.195 -5.071697,5.6921 -8.980072,7.4912 -3.877448,1.7681 -8.251158,2.6521 -13.121142,2.6521 -6.172857,0 -11.353067,-0.8995 -15.540643,-2.6987 -4.156593,-1.7991 -7.42912,-4.4977 -9.817592,-8.096 -2.357469,-3.6292 -3.598237,-7.72376 -3.72231,-12.28361"
         style=""
         id="path3435" />
    </g>
    <g
       transform="matrix(0,-1,1,0,0,0)"
       style="font-size:40px;font-style:normal;font-variant:normal;font-weight:normal;font-stretch:normal;line-height:125%;letter-spacing:0px;word-spacing:0px;fill:#0088aa;fill-opacity:1;stroke:none;font-family:Arial;-inkscape-font-specification:Arial"
       id="text3015">
      <path
         d="m -1016.0141,93.069922 -4.28,-12.24 c -0.36,-0.999999 -1,-1.32 -2.12,-1.32 l -3.2,0 c -0.84,0 -1.28,0.480001 -1.28,1.32 0,1.039999 0.52,1.32 1.88,1.32 0.12,0 0.2,0 0.32,0 l -0.56,17.76 c -0.24,0 -0.44,0 -0.64,0 -1.4,0 -1.92,0.279998 -1.92,1.359998 0,0.92 0.44,1.4 1.36,1.4 l 5.48,0 c 1.36,0 1.96,-0.2 1.96,-1.4 0,-1.04 -0.64,-1.399998 -2.08,-1.399998 -0.88,0 -1.32,0.04 -1.32,0.04 l 0.36,-16.8 3.92,11.24 c 0.36,1.079999 0.88,1.44 1.96,1.44 1.12,0 1.64,-0.360001 2,-1.44 l 3.84,-11.24 0.44,16.8 c -0.28,0 -0.56,0 -0.84,0 -1.64,0 -2.36,0.239998 -2.36,1.359998 0,1.2 0.6,1.4 1.96,1.4 l 5.48,0 c 0.92,0 1.36,-0.48 1.36,-1.4 0,-1.08 -0.52,-1.359998 -1.92,-1.359998 -0.2,0 -0.4,0 -0.64,0 l -0.56,-17.76 c 0.12,0 0.2,0 0.32,0 1.36,0 1.88,-0.280001 1.88,-1.32 0,-0.839999 -0.44,-1.32 -1.28,-1.32 l -3.24,0 c -1.12,0 -1.76,0.320001 -2.12,1.32 l -4.16,12.24"
         style="fill:#0088aa;font-family:Courier 10 Pitch;-inkscape-font-specification:Courier 10 Pitch"
         id="path3428" />
      <path
         d="m -1001.6716,82.309922 7.19998,18.399998 c 0.52,1.36 0.80001,2.2 2.12,2.2 l 1.08,0 c 0.96,0 1.36,-0.8 1.88,-2.2 l 7.04,-18.399998 c 0.08,0 0.16,0 0.24,0 1.32,0 1.84,-0.360001 1.84,-1.4 0,-0.919999 -0.48,-1.4 -1.36,-1.4 l -6.12,0 c -1.35999,0 -1.96,0.200001 -1.96,1.4 0,0.959999 0.56001,1.4 1.8,1.4 l 2.6,0 -6.48,17.04 -6.64,-17.04 2.16,0 c 1.24,0 1.8,-0.440001 1.8,-1.4 0,-1.199999 -0.6,-1.4 -1.96,-1.4 l -5.91998,0 c -0.88,0 -1.36,0.480001 -1.36,1.4 0,1.119999 0.56,1.4 2.04,1.4"
         style="fill:#0088aa;font-family:Courier 10 Pitch;-inkscape-font-specification:Courier 10 Pitch"
         id="path3430" />
      <path
         d="m -961.76912,80.149922 c -1.87999,-0.799999 -3.64,-1.24 -5.44,-1.24 -6.47999,0 -11.2,5.240007 -11.2,12.2 0,7.159993 4.80001,12.119998 11.12,12.119998 2.52,0 4.60001,-0.68 6.76,-2.08 1.44,-0.92 2.2,-1.559999 2.2,-2.439998 0,-0.799999 -0.6,-1.4 -1.44,-1.4 -0.68,0 -1.48,0.880001 -2.76,1.6 -1.51999,0.839999 -3.16,1.279998 -4.6,1.279998 -4.35999,0 -7.72,-3.400004 -7.72,-9.079998 0,-6.159994 3.12001,-9.56 7.64,-9.56 2.6,0 4.6,1.440002 5.08,3.28 0.44,1.759998 0.24001,2.72 1.92,2.72 1.16,0 1.4,-0.520001 1.4,-1.56 0,-0.28 -0.08,-1.840003 -0.08,-4.84 0,-1.359999 -0.08,-1.96 -1.44,-1.96 -0.76,0 -1.16,0.280001 -1.44,0.96"
         style="fill:#0088aa;font-family:Courier 10 Pitch;-inkscape-font-specification:Courier 10 Pitch"
         id="path3432" />
    </g>
  </g>
</svg>
